<?xml version="1.0" encoding="UTF-8" standalone="no"?>
<svg
   xmlns:dc="http://purl.org/dc/elements/1.1/"
   xmlns:cc="http://creativecommons.org/ns#"
   xmlns:rdf="http://www.w3.org/1999/02/22-rdf-syntax-ns#"
   xmlns:svg="http://www.w3.org/2000/svg"
   xmlns="http://www.w3.org/2000/svg"
   xmlns:sodipodi="http://sodipodi.sourceforge.net/DTD/sodipodi-0.dtd"
   xmlns:inkscape="http://www.inkscape.org/namespaces/inkscape"
   sodipodi:docname="#16 Alien.svg"
   inkscape:version="1.0 (4035a4fb49, 2020-05-01)"
   id="svg8"
   version="1.1"
   viewBox="0 0 210 297"
   height="297mm"
   width="210mm">
  <defs
     id="defs2" />
  <sodipodi:namedview
     inkscape:window-maximized="0"
     inkscape:window-y="0"
     inkscape:window-x="76"
     inkscape:window-height="728"
     inkscape:window-width="1274"
     showgrid="false"
     inkscape:document-rotation="0"
     inkscape:current-layer="layer1"
     inkscape:document-units="mm"
     inkscape:cy="556.9392"
     inkscape:cx="350.49087"
     inkscape:zoom="0.49497475"
     inkscape:pageshadow="2"
     inkscape:pageopacity="0.0"
     borderopacity="1.0"
     bordercolor="#666666"
     pagecolor="#ffffff"
     id="base" />
  <metadata
     id="metadata5">
    <rdf:RDF>
      <cc:Work
         rdf:about="">
        <dc:format>image/svg+xml</dc:format>
        <dc:type
           rdf:resource="http://purl.org/dc/dcmitype/StillImage" />
        <dc:title></dc:title>
      </cc:Work>
    </rdf:RDF>
  </metadata>
  <g
     id="layer1"
     inkscape:groupmode="layer"
     inkscape:label="Layer 1">
    <path
       sodipodi:nodetypes="cccsccccccc"
       id="path937"
       d="m 43.089285,207.88691 c 11.285078,4.65768 21.081756,12.66427 40.065477,0 v 0 c 0,0 -0.755953,1.5119 0,-17.38691 v 0 c 9.192262,-11.47869 21.581078,-14.64634 40.821428,0 0,0 0,-2.26785 0.75595,19.65477 9.0298,4.3648 17.7621,11.10956 28.72619,0 0,0 0,0.75595 -2.26786,-97.51786 -0.0579,-0.0629 -46.61184,-49.843355 -108.101185,0.75595 z"
       style="fill:#00ffda;stroke:#000000;stroke-width:0.264583px;stroke-linecap:butt;stroke-linejoin:miter;stroke-opacity:1;fill-opacity:1" />
    <path
       id="path939"
       d="m -15.119047,164.79762 -6.803572,-0.75596 v 0"
       style="fill:none;stroke:#000000;stroke-width:0.264583px;stroke-linecap:butt;stroke-linejoin:miter;stroke-opacity:1" />
    <path
       id="path941"
       d="M 61.988094,64.255952 C 83.910712,108.10118 84.666667,110.36904 84.666667,110.36904"
       style="fill:none;stroke:#000000;stroke-width:0.264583px;stroke-linecap:butt;stroke-linejoin:miter;stroke-opacity:1" />
    <path
       id="path943"
       d="m 124.73215,65.767854 c -15.875,46.869046 -15.875,43.089286 -15.875,43.089286 v 0"
       style="fill:none;stroke:#000000;stroke-width:0.264583px;stroke-linecap:butt;stroke-linejoin:miter;stroke-opacity:1" />
    <path
       id="path945"
       d="M -50.648809,102.05357 Z"
       style="fill:none;stroke:#000000;stroke-width:0.264583px;stroke-linecap:butt;stroke-linejoin:miter;stroke-opacity:1" />
    <path
       sodipodi:nodetypes="cc"
       id="path947"
       d="m 105.07738,123.97619 c 16.98937,-8.81935 15.91005,6.78605 15.875,6.80357"
       style="fill:none;stroke:#000000;stroke-width:0.264583px;stroke-linecap:butt;stroke-linejoin:miter;stroke-opacity:1" />
    <path
       sodipodi:nodetypes="cc"
       id="path949"
       d="m 130.02221,175.39417 c 4.41314,2.08277 5.69228,-5.20147 6.0812,-15.14636"
       style="fill:none;stroke:#000000;stroke-width:0.216826px;stroke-linecap:butt;stroke-linejoin:miter;stroke-opacity:1" />
    <g
       transform="translate(17.386904,-14.363095)"
       id="g978">
      <ellipse
         style="fill:none;stroke:#000000;stroke-width:0.264583;stroke-opacity:0.971888;paint-order:stroke markers fill"
         id="path953"
         cx="87.3125"
         cy="158.75"
         rx="14.741072"
         ry="15.119047" />
      <g
         id="g973">
        <ellipse
           ry="9.8273811"
           rx="10.205358"
           cy="162.52975"
           cx="85.800591"
           id="path955"
           style="fill:none;stroke:#000000;stroke-width:0.264583;stroke-opacity:0.971888;paint-order:stroke markers fill" />
      </g>
    </g>
    <path
       id="path957"
       d="M 42.333333,134.55952 C 29.482142,176.1369 29.482142,176.1369 29.482142,176.1369 v 0 c 0,0 0.755952,0 0,0 14.363096,0 14.363096,2.26786 14.363096,2.26786 v 0"
       style="fill:none;stroke:#000000;stroke-width:0.264583px;stroke-linecap:butt;stroke-linejoin:miter;stroke-opacity:1" />
    <ellipse
       ry="6.0476193"
       rx="5.6696429"
       cy="64.255951"
       cx="61.988094"
       id="path980"
       style="fill:none;stroke:#000000;stroke-width:0.264583;stroke-opacity:0.971888;paint-order:stroke markers fill" />
    <ellipse
       style="fill:none;stroke:#000000;stroke-width:0.264583;stroke-opacity:0.971888;paint-order:stroke markers fill"
       id="path980-5"
       cx="124.73215"
       cy="65.767853"
       rx="5.6696429"
       ry="6.0476193" />
    <path
       id="path999"
       d="m 152.70238,139.85119 c 16.63095,32.50595 19.65476,31.75 19.65476,31.75 0,0 4.53572,0 -2.26786,1.5119 -6.80357,1.51191 6.04762,-2.26785 6.04762,-2.26785"
       style="fill:none;stroke:#000000;stroke-width:0.264583px;stroke-linecap:butt;stroke-linejoin:miter;stroke-opacity:1" />
    <path
       id="path1001"
       d="m 176.1369,170.84524 c -25.70238,0.75595 -25.70238,3.02381 -25.70238,3.02381"
       style="fill:none;stroke:#000000;stroke-width:0.264583px;stroke-linecap:butt;stroke-linejoin:miter;stroke-opacity:1" />
    <path
       transform="scale(0.26458333)"
       id="path1007"
       d="m 372.47633,590.23411 c -12.75787,-7.77937 -18.19062,-16.88378 -18.19062,-30.48453 0,-13.38899 7.18752,-24.55256 20.11039,-31.23524 23.08278,-11.93656 51.31819,5.38693 51.31819,31.48566 0,27.18469 -30.15463,44.30965 -53.23796,30.23411 z"
       style="fill:#00ff00;fill-opacity:1;stroke:#000000;stroke-width:2.85714;stroke-opacity:0.971888;paint-order:stroke markers fill" />
    <path
       transform="scale(0.26458333)"
       id="path1009"
       d="m 398.54334,597.46323 c 30.82244,-8.80118 41.24358,-40.87876 20.44485,-62.93184 -16.84398,-17.85982 -45.95582,-16.60177 -60.61659,2.61949 -5.93959,7.7872 -7.47528,12.95057 -7.40812,24.90781 0.0809,14.40354 -0.0955,14.76187 -3.90956,7.94131 -2.19686,-3.92857 -4.03985,-14.92685 -4.09553,-24.44063 -0.13187,-22.52986 10.36159,-40.38731 29.0482,-49.43334 25.27336,-12.23462 53.42561,-4.35121 68.31746,19.1308 6.71708,10.59174 8.24738,16.16779 8.24738,30.05152 0,31.12344 -18.79299,52.1243 -49.08873,54.85585 l -15.19699,1.37021 z"
       style="fill:#001600;fill-opacity:1;stroke:#000000;stroke-width:2.85714;stroke-opacity:0.971888;paint-order:stroke markers fill" />
    <path
       transform="scale(0.26458333)"
       id="path1011"
       d=""
       style="fill:#001600;fill-opacity:1;stroke:#000000;stroke-width:2.85714;stroke-opacity:0.971888;paint-order:stroke markers fill" />
    <path
       transform="scale(0.26458333)"
       id="path1013"
       d=""
       style="fill:#001600;fill-opacity:1;stroke:#000000;stroke-width:2.85714;stroke-opacity:0.971888;paint-order:stroke markers fill" />
    <path
       transform="scale(0.26458333)"
       id="path1015"
       d="m 468.64215,262.67114 c 1.53253,-4.03087 2.68492,-9.49515 2.56086,-12.14285 -0.1843,-3.93321 -0.52073,-4.02987 -1.83881,-0.52829 -0.88728,2.35714 -2.81422,7.5 -4.28208,11.42857 l -2.66885,7.14286 -5.49235,-6.7451 c -3.02079,-3.7098 -5.49235,-9.87539 -5.49235,-13.7013 0,-8.52696 11.87219,-20.98217 20,-20.98217 8.30734,0 20,12.52785 20,21.42857 0,8.80669 -11.66227,21.42857 -19.79941,21.42857 -5.01684,0 -5.40828,-0.96044 -2.98701,-7.32886 z"
       style="fill:#001600;fill-opacity:1;stroke:#000000;stroke-width:2.85714;stroke-opacity:0.971888;paint-order:stroke markers fill" />
    <path
       transform="scale(0.26458333)"
       id="path1017"
       d="m 221.2987,257.27273 c -8.93792,-8.93793 -8.93792,-19.89325 0,-28.83117 8.89889,-8.89889 17.07514,-8.89889 25.97403,0 7.87826,7.87826 9.00171,17.74652 2.96087,26.00786 -4.52824,6.19274 -4.70215,6.10345 -11.44942,-5.87799 -4.79213,-8.50961 -4.75983,-5.82895 0.12048,10 2.586,8.3875 -8.75643,7.55082 -17.60596,-1.2987 z"
       style="fill:#550000;fill-opacity:1;stroke:#000000;stroke-width:2.85714;stroke-opacity:0.971888;paint-order:stroke markers fill" />
    <path
       transform="scale(0.26458333)"
       id="path1019"
       d="m 456.32912,261.70001 c -2.6953,-4.56278 -4.90055,-11.04889 -4.90055,-14.41357 0,-7.82785 12.22795,-20.14358 20,-20.14358 8.30734,0 20,12.52785 20,21.42857 0,8.92975 -11.70211,21.42857 -20.06266,21.42857 -4.87116,0 -5.70069,-1.2412 -4.2964,-6.42857 l 1.74029,-6.42857 -3.79006,6.42656 -3.79007,6.42656 z"
       style="fill:#550000;fill-opacity:1;stroke:#000000;stroke-width:2.85714;stroke-opacity:0.971888;paint-order:stroke markers fill" />
    <path
       transform="scale(0.26458333)"
       id="path1021"
       d="m 401.42857,594.92693 c 18.17404,-8.87241 24.39379,-15.96443 26.27025,-29.95446 3.04378,-22.69311 -14.56937,-40.65622 -39.88363,-40.67608 -11.42187,-0.009 -15.26733,1.50504 -23.88739,9.40474 -8.8227,8.0854 -10.56314,11.81867 -12.32095,26.42857 -1.96689,16.34763 -2.17807,16.69852 -5.39834,8.97001 -4.95892,-11.9012 -3.96378,-36.06419 2.02215,-49.09971 6.24228,-13.59376 12.61398,-19.68548 26.78214,-25.60532 35.59067,-14.87073 73.6495,10.88444 73.49588,49.73612 -0.12472,31.54211 -17.81341,52.56803 -47.17497,56.07521 l -14.19085,1.69507 z"
       style="fill:#550000;fill-opacity:1;stroke:#000000;stroke-width:2.85714;stroke-opacity:0.971888;paint-order:stroke markers fill" />
    <path
       transform="scale(0.26458333)"
       id="path1023"
       d="m 381.33915,592.46844 c -10.59013,-2.82211 -20.71928,-11.89463 -24.56087,-21.99879 -4.56236,-11.99989 -0.55994,-24.78025 10.91589,-34.85615 9.33512,-8.19635 11.77222,-8.9744 24.33077,-7.76769 25.21097,2.42246 39.62013,24.50669 29.67033,45.47433 -7.21534,15.20519 -24.45578,23.38549 -40.35612,19.1483 z"
       style="fill:#800000;fill-opacity:1;stroke:#000000;stroke-width:2.85714;stroke-opacity:0.971888;paint-order:stroke markers fill" />
    <path
       transform="scale(0.26458333)"
       id="path1025"
       d="m 577.16989,592.37027 0.027,-58.08456 6.66952,11.42858 c 3.66824,6.28571 12.7228,22.67746 20.12125,36.4261 7.39845,13.74864 18.99212,33.2597 25.76371,43.3579 l 12.31197,18.36038 -13.17454,1.52129 c -7.246,0.83672 -21.85312,2.32085 -32.46026,3.29808 l -19.28571,1.77678 z"
       style="fill:#800000;fill-opacity:1;stroke:#000000;stroke-width:2.85714;stroke-opacity:0.971888;paint-order:stroke markers fill" />
    <path
       transform="scale(0.26458333)"
       id="path1027"
       d="m 130.56839,665.02711 c -13.99867,-0.87438 -16.35056,-1.78947 -15.13368,-5.88833 4.73696,-15.95555 42.0736,-136.7776 42.99691,-139.13878 0.61449,-1.57143 1.21876,30.89286 1.34282,72.14286 l 0.22556,75 -6.42857,-0.54024 c -3.53572,-0.29714 -13.88708,-1.00611 -23.00304,-1.57551 z"
       style="fill:#000080;fill-opacity:1;stroke:#000000;stroke-width:2.85714;stroke-opacity:0.971888;paint-order:stroke markers fill" />
    <path
       transform="scale(0.26458333)"
       id="path1029"
       d="m 577.14286,594.61013 c 0,-30.82129 0.53873,-56.0387 1.19719,-56.0387 0.65845,0 7.28754,11.25 14.73131,25 7.44376,13.75 21.04788,37.02676 30.23138,51.72613 C 632.48623,629.99693 640,642.38287 640,642.82185 c 0,0.43899 -8.67857,1.64435 -19.28571,2.67857 -10.60715,1.03422 -24.75,2.6157 -31.42858,3.5144 l -12.14285,1.634 z"
       style="fill:#000080;fill-opacity:1;stroke:#000000;stroke-width:2.85714;stroke-opacity:0.971888;paint-order:stroke markers fill" />
    <path
       transform="scale(0.26458333)"
       id="path1031"
       d="m 510,810.35117 c -18.05217,-6.5166 -33.66989,-14.5034 -36.38483,-18.60697 -1.15451,-1.74503 -2.1188,-18.8048 -2.14286,-37.9106 l -0.0437,-34.73786 -20.6306,-13.19925 c -49.63652,-31.75703 -89.76416,-32.08806 -123.75654,-1.02095 l -15.61286,14.26929 v 33.54491 33.54495 l -13.57143,7.34457 c -36.54652,19.77817 -64.69073,20.5358 -106.63689,2.8706 l -25.4917,-10.73557 -0.007,-179.05648 -0.007,-179.05648 19.52177,-14.19894 c 10.73697,-7.80942 29.70126,-20.05471 42.14286,-27.21176 22.56937,-12.98306 60.38507,-29.37902 62.61553,-27.14856 0.64727,0.64727 7.64483,14.6276 15.55013,31.06739 7.9053,16.4398 14.39176,28.25771 14.41435,26.26202 0.0226,-1.99569 -5.74464,-15.14857 -12.81607,-29.22862 -7.07143,-14.08006 -12.85715,-26.80846 -12.85715,-28.28533 0,-3.99047 37.9636,-11.91701 65.81036,-13.74074 19.2262,-1.25916 74.18964,3.22602 74.18964,6.05409 0,0.31937 -5.17752,13.86619 -11.50561,30.10404 -6.32808,16.23786 -11.00324,30.02575 -10.38924,30.63975 1.22296,1.22296 9.66367,-18.0724 17.71054,-40.4861 2.82084,-7.85714 6.13527,-15.44041 7.3654,-16.8517 3.2743,-3.7565 43.07677,10.98253 69.67606,25.80135 29.15734,16.24396 59.05331,40.3784 61.5224,49.66588 3.56488,13.4094 6.39034,222.81304 3.00637,222.81304 -1.70512,0 -3.1002,1.3616 -3.1002,3.02577 0,1.66418 1.11126,2.33895 2.46948,1.49955 3.52555,-2.17892 5.98178,32.08611 6.33003,88.30628 l 0.30075,48.54586 -9.50149,7.9322 C 551.3586,816.20174 533.26086,818.74806 510,810.35117 Z m -2.96691,-152.6398 c 4.70068,-7.17417 10.45737,-50.56851 6.7084,-50.56851 -1.27209,0 -2.41172,6.75 -2.53249,15 -0.32823,22.42283 -5.60943,37.22854 -14.12546,39.6004 -6.68654,1.86228 -6.72694,1.98883 -0.72083,2.25765 3.70986,0.166 8.15872,-2.45625 10.67038,-6.28954 z m -90.55174,-57.84774 c 47.59248,-19.8854 47.59248,-88.41328 0,-108.29869 -41.67478,-17.41284 -85.91929,21.64264 -76.16136,67.22909 7.25834,33.90902 44.82096,54.16446 76.16136,41.0696 z M 458.20751,485 c -4.01122,-16.57577 -7.0722,-21.1284 -16.99279,-25.27349 -9.15111,-3.82357 -11.8947,-3.80473 -25.58704,0.17575 -8.43526,2.45219 -16.09277,5.68166 -17.01668,7.17658 -0.92391,1.49492 2.82649,0.83517 8.33424,-1.46611 5.50775,-2.30129 15.74777,-4.18416 22.75562,-4.18416 10.36183,0 13.84751,1.40602 18.6632,7.52817 3.25691,4.14049 5.92165,11.21192 5.92165,15.71429 0,4.50236 1.3102,8.18611 2.91158,8.18611 1.73245,0 2.14157,-3.182 1.01022,-7.85714 z"
       style="fill:#007a00;fill-opacity:0.46184739;stroke:#000000;stroke-width:2.85714;stroke-opacity:0.971888;paint-order:stroke markers fill" />
    <path
       transform="scale(0.26458333)"
       id="path1033"
       d="m 577.14286,596.03226 c 0,-30.03203 0.58614,-54.60369 1.30254,-54.60369 0.7164,0 6.6776,9.32143 13.24711,20.71429 6.56951,11.39285 19.48337,33.3098 28.69746,48.70432 9.21409,15.39451 16.75289,29.04981 16.75289,30.34511 0,1.29529 -9.32143,3.22052 -20.71429,4.27827 -11.39286,1.05776 -24.89286,2.65269 -30,3.54429 l -9.28571,1.6211 z"
       style="fill:#007a00;fill-opacity:0.461847;stroke:#000000;stroke-width:2.85714;stroke-opacity:0.971888;paint-order:stroke markers fill" />
    <path
       transform="scale(0.26458333)"
       id="path1035"
       d="m 130,664.55113 c -7.85714,-0.93169 -14.11045,-2.9797 -13.89625,-4.55113 1.08882,-7.98758 39.21341,-128.95669 41.37597,-131.28571 1.46085,-1.57331 2.52028,26.9513 2.52028,67.85714 v 70.57143 l -7.85714,-0.44887 C 147.82143,666.4471 137.85714,665.48283 130,664.55113 Z"
       style="fill:#007a00;fill-opacity:0.461847;stroke:#000000;stroke-width:2.85714;stroke-opacity:0.971888;paint-order:stroke markers fill" />
    <path
       transform="scale(0.26458333)"
       id="path1037"
       d="m 509.06971,807.33151 c -8.3688,-3.09608 -19.29737,-8.01051 -24.28571,-10.92094 l -9.06971,-5.29171 -0.79906,-36.19477 -0.79906,-36.1948 -12.05808,-8.266 c -18.67813,-12.80415 -40.48201,-23.03489 -59.44694,-27.89349 -28.97283,-7.42249 -53.18647,-0.38346 -79.03972,22.97731 l -15,13.55386 v 33.6384 33.63843 l -20.71429,9.48363 c -18.02191,8.25097 -23.68517,9.47654 -43.57143,9.42917 -22.45599,-0.0534 -33.70363,-2.79394 -62.98911,-15.34717 l -12.72517,-5.45466 V 605.97855 427.46832 l 30.10908,-20.13353 c 27.1866,-18.17932 66.83094,-39.24495 83.35653,-44.2928 5.69749,-1.74033 7.74853,0.90987 20.74034,26.79906 7.92967,15.80171 15.69157,28.73038 17.24867,28.73038 4.14493,0 3.98955,-0.47147 -10.07258,-30.56359 -9.28927,-19.87851 -11.9454,-28.20533 -9.48258,-29.72743 13.46824,-8.32383 113.64933,-13.59101 125.73065,-6.61049 3.99798,2.31001 3.42038,5.45478 -4.94098,26.90151 -5.20751,13.35714 -9.55005,26.53571 -9.65009,29.28571 -0.41299,11.35232 5.06552,3.40799 15.76259,-22.85714 13.21403,-32.44518 11.50759,-31.84769 48.21543,-16.88206 27.89968,11.37459 64.52454,34.41271 80.06228,50.36155 l 11.36503,11.66575 1.96534,54.92738 c 3.36083,93.92826 2.90457,163.32738 -1.10011,167.33207 -2.82532,2.82531 -2.67989,4.0834 0.71428,6.17954 3.5346,2.18288 4.42886,14.07031 5.24066,69.66543 l 0.9788,67.03343 -11.76334,7.78462 c -15.48974,10.25063 -33.87403,11.70275 -53.98172,4.2638 z m -6.25354,-143.02385 c 2.91369,-1.55937 6.63794,-7.02366 8.27609,-12.14286 7.21557,-22.54864 7.3854,-56.26209 0.22628,-44.94187 -1.46283,2.3131 -2.6794,10.35408 -2.70345,17.86884 -0.05,15.59917 -6.26612,32.75757 -12.77189,35.25409 -5.00823,1.92183 -5.99069,6.797 -1.36974,6.797 1.67474,0 5.42891,-1.27586 8.34263,-2.8352 z m -79.54316,-65.94839 c 24.34839,-12.42162 36.80245,-44.49976 27.76099,-71.50435 -15.73156,-46.98613 -75.11896,-55.26542 -103.76427,-14.46594 -7.77448,11.07317 -8.6983,14.61257 -8.6983,33.32531 0,18.66905 0.93252,22.26314 8.61098,33.18826 18.47068,26.28057 47.94271,33.8167 76.0906,19.45672 z M 460,488.99778 c 0,-27.19267 -22.10818,-39.82965 -51.25609,-29.29786 -12.57776,4.54463 -16.23681,12.25599 -4.11642,8.67525 4.52631,-1.33721 15.24283,-2.48295 23.81449,-2.54609 13.82143,-0.1018 15.98959,0.69341 19.162,7.02806 1.96745,3.92857 4.30019,10.67857 5.18388,15 C 454.74994,497.452 460,498.28233 460,488.99778 Z"
       style="fill:#007a00;fill-opacity:0.461847;stroke:#000000;stroke-width:2.85714;stroke-opacity:0.971888;paint-order:stroke markers fill" />
    <path
       transform="scale(0.26458333)"
       id="path1039"
       d="m 577.14286,607.69254 c 0,-23.4809 0.82732,-46.82916 1.83849,-51.88502 l 1.8385,-9.19248 7.69844,12.40676 c 29.43373,47.43528 46.55925,80.15159 43.08101,82.30126 -2.03904,1.26019 -12.87589,3.14966 -24.0819,4.19882 -11.206,1.04916 -22.62454,2.57258 -25.37454,3.38538 -4.60476,1.36099 -5,-1.89695 -5,-41.21472 z"
       style="fill:#007a00;fill-opacity:0.461847;stroke:#000000;stroke-width:2.85714;stroke-opacity:0.971888;paint-order:stroke markers fill" />
    <path
       transform="scale(0.26458333)"
       id="path1041"
       d="m 136.31816,664.25704 c -9.09644,-1.1533 -17.16833,-2.72626 -17.93754,-3.49546 C 117.03648,659.41743 139.64408,582.49189 150.93227,550 l 5.4594,-15.71429 1.98444,24.28572 c 2.72721,33.37555 0.9111,106.53522 -2.66182,107.22829 -1.57143,0.30483 -10.29969,-0.38937 -19.39613,-1.54268 z"
       style="fill:#0cc800;fill-opacity:0.461847;stroke:#000000;stroke-width:2.85714;stroke-opacity:0.971888;paint-order:stroke markers fill" />
    <path
       transform="scale(0.26458333)"
       id="path1043"
       d="m 511.27234,806.01011 c -5.58591,-2.1428 -15.5502,-6.6478 -22.14285,-10.01111 l -11.98663,-6.11514 V 754.36491 718.84594 L 465,710.5216 c -44.6789,-30.62889 -85.86397,-39.52871 -115.1533,-24.88389 -7.77283,3.88643 -20.88241,12.98615 -29.13241,20.22155 l -15,13.15528 v 33.76035 33.76031 l -19.28572,7.99 C 258.22542,806.20963 227.61654,805.70983 195,793.03223 l -23.57143,-9.16186 V 605.82275 427.77513 l 29.28572,-19.14488 c 33.1787,-21.68985 80.49592,-45.69964 84.80906,-43.03397 1.5807,0.97693 8.73232,12.52345 15.89248,25.65893 22.0789,40.50429 29.5039,39.43673 11.44131,-1.64502 -11.7587,-26.74413 -12.09948,-29.80724 -3.57143,-32.10249 24.51286,-6.59743 109.78429,-9.39008 115.39516,-3.77921 1.21456,1.21456 -1.99062,14.55223 -7.12263,29.63928 -6.01215,17.67452 -8.34765,28.41425 -6.56641,30.19549 3.23022,3.23021 6.49289,-2.01981 19.08261,-30.70612 7.37713,-16.80916 9.98865,-20.1423 16.36886,-20.89195 17.15999,-2.01622 87.18561,36.3618 110.40441,60.50788 l 9.70486,10.09244 1.57703,115.14582 c 0.86737,63.3302 2.04854,144.88184 2.62486,181.22587 l 1.04783,66.08006 -10.64695,6.58017 c -12.83883,7.93483 -35.4802,9.93771 -49.883,4.41268 z M 503.802,664.15574 c 8.96003,-7.04794 13.30351,-21.28605 13.32491,-43.67955 0.0114,-12.0645 -0.97022,-16.34016 -3.55548,-15.48421 -3.34292,1.10679 -5.29489,8.28744 -9.29946,34.20962 -0.90323,5.8466 -4.76948,14.34674 -8.59171,18.8892 -6.27003,7.45151 -6.758,11.9092 -1.30366,11.9092 1.0976,0 5.33903,-2.62991 9.4254,-5.84426 z m -81.84305,-63.967 c 44.54868,-20.74165 44.55728,-86.46882 0.0142,-108.66557 -17.40429,-8.67292 -33.3489,-9.1979 -49.116,-1.61715 -14.93651,7.1814 -19.17435,10.80415 -28.20446,24.11076 -6.3907,9.41722 -7.50982,14.13617 -7.50982,31.66627 0,18.05283 1.03825,22.14584 8.39701,33.10277 4.74495,7.06505 14.37541,15.94039 22.14286,20.40663 17.52868,10.07888 34.1148,10.38334 54.27622,0.99629 z m 39.00319,-115.90842 c -1.03743,-20.89892 -22.31686,-34.33516 -44.84163,-28.31386 -25.32196,6.76905 -25.81875,15.22098 -0.73678,12.53493 23.86341,-2.55555 29.22174,-0.57354 33.38636,12.3494 4.50302,13.97306 5.44062,15.37668 9.34888,13.99558 1.82029,-0.64325 3.09972,-5.39797 2.84317,-10.56605 z"
       style="fill:#0cc800;fill-opacity:0.461847;stroke:#000000;stroke-width:2.85714;stroke-opacity:0.971888;paint-order:stroke markers fill" />
    <path
       transform="scale(0.26458333)"
       id="path1045"
       d="m 578.54253,632.14286 c -1.02775,-8.25 -0.79884,-30.39338 0.5087,-49.20751 l 2.37734,-34.2075 16.07816,27.06465 c 18.28854,30.78541 34.81516,62.83799 33.22156,64.43159 -1.21012,1.21012 -38.12583,6.77486 -45.5227,6.86217 -3.6529,0.0431 -5.23932,-3.51479 -6.66306,-14.9434 z"
       style="fill:#0cc800;fill-opacity:0.461847;stroke:#000000;stroke-width:2.85714;stroke-opacity:0.971888;paint-order:stroke markers fill" />
    <path
       transform="scale(0.26458333)"
       id="path1047"
       d="M 127.85714,662.23927 C 123.53571,661.58463 120,659.50482 120,657.61747 c 0,-4.85643 31.36789,-108.05921 34.43456,-113.29238 1.53125,-2.61302 2.56893,20.27398 2.62141,57.81777 l 0.0869,62.14285 -10.71429,-0.42809 c -5.89286,-0.23545 -14.25,-0.96371 -18.57143,-1.61835 z"
       style="fill:#0cc800;fill-opacity:0.461847;stroke:#000000;stroke-width:2.85714;stroke-opacity:0.971888;paint-order:stroke markers fill" />
    <path
       transform="scale(0.26458333)"
       id="path1049"
       d=""
       style="fill:#0cc800;fill-opacity:0.461847;stroke:#000000;stroke-width:2.85714;stroke-opacity:0.971888;paint-order:stroke markers fill" />
    <path
       transform="scale(0.26458333)"
       id="path1051"
       d=""
       style="fill:#0cc800;fill-opacity:0.461847;stroke:#000000;stroke-width:2.85714;stroke-opacity:0.971888;paint-order:stroke markers fill" />
    <path
       transform="scale(0.26458333)"
       id="path1053"
       d=""
       style="fill:#0cc800;fill-opacity:0.461847;stroke:#000000;stroke-width:2.85714;stroke-opacity:0.971888;paint-order:stroke markers fill" />
    <path
       transform="scale(0.26458333)"
       id="path1055"
       d=""
       style="fill:#0cc800;fill-opacity:0.461847;stroke:#000000;stroke-width:2.85714;stroke-opacity:0.971888;paint-order:stroke markers fill" />
    <path
       transform="scale(0.26458333)"
       id="path1057"
       d=""
       style="fill:#00a000;fill-opacity:0.461847;stroke:#000000;stroke-width:2.85714;stroke-opacity:0.971888;paint-order:stroke markers fill" />
    <path
       transform="scale(0.26458333)"
       id="path1059"
       d="m 378.62195,599.03649 c -9.58542,-3.50542 -19.36468,-10.35207 -25.06355,-17.54748 -2.81436,-3.55341 -3.08168,-4.37273 -1.99462,-6.11337 1.1769,-1.88452 1.42484,-1.71313 3.9708,2.74468 5.63049,9.85861 17.97279,18.1503 28.52647,19.16437 2.95515,0.28396 4.40912,0.78109 3.58286,1.22504 -3.03777,1.63217 -5.59153,1.78128 -9.02196,0.52676 z"
       style="fill:#24d000;fill-opacity:0.461847;stroke:#000000;stroke-width:1.01015;stroke-opacity:0.971888;paint-order:stroke markers fill" />
    <path
       transform="scale(0.26458333)"
       id="path1061"
       d="m 364.02997,590.40989 c -0.34337,-0.55558 -0.16974,-1.01015 0.38584,-1.01015 0.55559,0 1.29109,0.45457 1.63446,1.01015 0.34337,0.55558 0.16974,1.01015 -0.38584,1.01015 -0.55558,0 -1.29109,-0.45457 -1.63446,-1.01015 z"
       style="fill:#a06400;fill-opacity:0.461847;stroke:#000000;stroke-width:1.01015;stroke-opacity:0.971888;paint-order:stroke markers fill" />
    <path
       transform="scale(0.26458333)"
       id="path1063"
       d="m 516.62666,806.04084 c -3.29849,-0.83466 -13.18536,-4.99254 -21.97081,-9.23972 l -15.97357,-7.72215 v -35.5333 -35.5333 l -9.84898,-6.60155 c -34.06494,-22.83293 -57.24979,-32.25404 -83.08505,-33.76143 -25.09342,-1.4641 -44.57622,7.46395 -73.47508,33.6702 l -8.32025,7.54503 -0.26605,33.45005 -0.26605,33.45005 -8.84228,3.76111 c -21.08821,8.96997 -32.12444,11.45576 -50.75672,11.43242 -19.90238,-0.0249 -33.34043,-3.12367 -60.10408,-13.85959 l -10.6066,-4.25471 -0.25536,-177.03263 -0.25536,-177.03261 16.03568,-10.48234 c 22.01699,-14.39225 36.51624,-23.16637 53.16541,-32.17265 20.61228,-11.15011 37.79473,-18.95754 41.72138,-18.95754 1.91297,0 7.76189,8.90781 18.90326,28.78935 13.64236,24.34452 21.70279,32.64186 21.70279,22.34067 0,-4.32444 -3.25752,-13.68592 -11.59934,-33.33425 -3.74644,-8.82439 -7.04724,-17.8004 -7.33513,-19.9467 -0.49379,-3.68149 -0.32592,-3.98488 2.966,-5.36033 7.76094,-3.24273 37.54131,-6.22641 72.03194,-7.21686 20.24965,-0.58149 41.09297,0.43106 42.7381,2.07619 0.99202,0.99202 -1.66476,11.89 -7.38345,30.28649 -7.72163,24.83984 -8.18523,30.85276 -2.37876,30.85276 2.71255,0 6.3127,-6.11636 16.01039,-27.20032 4.58602,-9.97056 9.59712,-19.63449 11.13579,-21.47541 2.57197,-3.07719 3.23394,-3.3346 8.20832,-3.1918 21.46269,0.61613 86.21443,37.57288 110.55347,63.09787 l 6.14778,6.44733 1.33728,107.82935 c 1.29898,104.73957 1.28323,107.92974 -0.54956,111.33303 -1.86414,3.46147 -1.8613,3.53151 0.23559,5.81281 2.08593,2.26941 2.1333,3.26477 2.75335,57.86752 0.347,30.55712 0.89566,60.55865 1.21926,66.67007 l 0.58838,11.11168 -7.92978,4.72849 c -4.36138,2.60067 -10.4299,5.47741 -13.48561,6.39276 -7.87443,2.35881 -25.23557,2.86956 -32.7663,0.96396 z M 501.00661,668.0936 c 12.47055,-8.77764 17.15456,-21.57408 17.20645,-47.00701 0.0286,-14.02612 -0.81124,-17.54472 -4.18769,-17.54472 -4.05655,0 -5.94997,5.0589 -9.59177,25.62756 -2.60149,14.69306 -5.40624,22.36425 -10.55258,28.86204 -4.07485,5.14491 -5.37783,8.75848 -4.05166,11.23645 1.55378,2.90328 6.05618,2.43025 11.17725,-1.17432 z m -94.55023,-61.01148 c 3.88908,-0.8115 11.38947,-3.59932 16.66751,-6.19516 16.35104,-8.04175 27.31502,-21.56414 31.80463,-39.22611 1.94391,-7.64734 1.94268,-22.40854 -0.003,-30.65976 -5.26181,-22.31914 -23.1885,-40.05104 -46.6759,-46.16873 -22.68932,-5.90981 -49.49961,5.61856 -64.21945,27.61425 -5.85459,8.74845 -7.4039,13.62757 -8.23708,25.94042 -0.98805,14.60151 0.64873,26.74646 4.67477,34.68687 6.62018,13.05675 23.80984,27.92425 37.37464,32.32566 10.88362,3.53145 17.80271,3.93832 28.61345,1.68256 z m 54.71747,-114.40119 c 3.14816,-7.53461 0.12219,-20.07053 -6.72797,-27.87243 -6.2125,-7.07565 -17.2041,-11.74206 -27.71766,-11.76736 -6.40215,-0.0155 -18.85547,3.35741 -25.32261,6.85829 -4.57639,2.47736 -5.05076,3.06584 -5.05076,6.2657 v 3.53153 h 20.20305 c 11.11168,0 20.93656,0.11364 21.83307,0.25254 3.3038,0.51185 6.80861,5.58085 10.02373,14.49725 3.66417,10.16182 5.0045,12.01925 8.67301,12.01925 1.9392,0 2.86184,-0.85458 4.08614,-3.78477 z"
       style="fill:#a06400;fill-opacity:0.461847;stroke:#000000;stroke-width:1.01015;stroke-opacity:0.971888;paint-order:stroke markers fill" />
    <path
       transform="scale(0.26458333)"
       id="path1065"
       d="m 582.99167,644.77077 c -2.59801,-3.13043 -3.63394,-11.85226 -3.63713,-30.62229 -0.003,-19.55897 2.22487,-60.10408 3.30307,-60.10408 0.7517,0 0.6767,-0.12179 15.37721,24.96868 12.9429,22.09061 31.16019,56.70805 31.16019,59.21219 0,1.55066 -3.51961,2.34797 -22.86055,5.17872 -18.39683,2.69257 -22.06426,2.90731 -23.34279,1.36678 z"
       style="fill:#a06400;fill-opacity:0.461847;stroke:#000000;stroke-width:1.01015;stroke-opacity:0.971888;paint-order:stroke markers fill" />
    <path
       transform="scale(0.26458333)"
       id="path1067"
       d="m 139.49467,662.05574 c -10.19794,-0.78336 -16.84522,-2.25683 -17.9031,-3.96852 -0.81414,-1.31731 13.55339,-50.43828 27.03395,-92.42607 l 5.1891,-16.16244 0.72093,5.05077 c 0.39651,2.77791 0.76075,28.3474 0.80942,56.82108 l 0.0885,51.77031 -2.77792,-0.14378 c -1.52786,-0.0791 -7.45025,-0.50269 -13.16088,-0.94135 z"
       style="fill:#a06400;fill-opacity:0.461847;stroke:#000000;stroke-width:1.01015;stroke-opacity:0.971888;paint-order:stroke markers fill" />
    <path
       transform="scale(0.26458333)"
       id="path1069"
       d="m 357.27866,584.60151 c -4.09308,-4.40091 -6.1347,-8.05439 -4.92033,-8.80491 0.58577,-0.36203 1.06699,-0.29048 1.06938,0.159 0.002,0.44948 1.81369,3.20372 4.0251,6.12053 4.26489,5.62531 4.15748,7.1828 -0.17415,2.52538 z"
       style="fill:#a06400;fill-opacity:0.461847;stroke:#000000;stroke-width:1.01015;stroke-opacity:0.971888;paint-order:stroke markers fill" />
    <path
       transform="scale(0.26458333)"
       id="path1071"
       d="m 365.17767,589.89901 c -0.31857,-0.83018 -0.16574,-1.50942 0.33961,-1.50942 1.36932,0 2.21963,1.79513 1.1604,2.44978 -0.50643,0.31299 -1.18143,-0.11017 -1.50001,-0.94036 z"
       style="fill:#a06400;fill-opacity:0.461847;stroke:#000000;stroke-width:1.01015;stroke-opacity:0.971888;paint-order:stroke markers fill" />
    <path
       transform="scale(0.26458333)"
       id="path1073"
       d=""
       style="fill:#a06400;fill-opacity:0.461847;stroke:#000000;stroke-width:1.01015;stroke-opacity:0.971888;paint-order:stroke markers fill" />
    <path
       transform="scale(0.26458333)"
       id="path1075"
       d=""
       style="fill:#a06400;fill-opacity:0.461847;stroke:#000000;stroke-width:1.01015;stroke-opacity:0.971888;paint-order:stroke markers fill" />
    <path
       transform="scale(0.26458333)"
       id="path1077"
       d=""
       style="fill:#a06400;fill-opacity:0.461847;stroke:#000000;stroke-width:1.01015;stroke-opacity:0.971888;paint-order:stroke markers fill" />
    <path
       transform="scale(0.26458333)"
       id="path1079"
       d="m 362.01258,588.94021 c -0.61942,-0.51815 -0.9426,-1.13926 -0.9375,-1.80176 l 0.008,-1.01104 1.37485,1.34252 c 1.05378,1.02898 1.28336,1.45276 0.98306,1.8146 -0.21549,0.25965 -0.4123,0.46631 -0.43736,0.45925 -0.0251,-0.007 -0.47093,-0.36867 -0.99084,-0.80357 z"
       style="fill:#a06400;fill-opacity:0.461847;stroke:#000000;stroke-width:0.357143;stroke-opacity:0.971888;paint-order:stroke markers fill" />
    <path
       transform="scale(0.26458333)"
       id="path1081"
       d="m 380.80676,599.03566 c -1.98322,-0.39414 -7.54872,-2.83617 -11.02635,-4.83813 -3.5106,-2.02094 -3.7581,-2.2315 -3.10066,-2.63782 0.33238,-0.20542 0.98353,-0.006 1.92991,0.59162 4.51756,2.85181 10.87846,5.25171 15.05322,5.67943 1.29293,0.13246 2.42773,0.36535 2.52177,0.51752 0.14997,0.24264 -3.03173,1.11511 -3.69079,1.01207 -0.13765,-0.0215 -0.89685,-0.16763 -1.6871,-0.32469 z"
       style="fill:#a06400;fill-opacity:0.461847;stroke:#000000;stroke-width:0.357143;stroke-opacity:0.971888;paint-order:stroke markers fill" />
    <path
       transform="scale(0.26458333)"
       id="path1083"
       d="m 379.54168,598.3679 c -3.99624,-1.27877 -13.9141,-6.44477 -12.40527,-6.46164 0.33391,-0.004 1.53927,0.55718 2.67857,1.24646 2.96172,1.79186 8.70667,3.95919 12.43799,4.69233 2.47951,0.48718 3.00228,0.6857 2.31165,0.87782 -1.49034,0.41458 -2.93767,0.3123 -5.02294,-0.35497 z"
       style="fill:#a06400;fill-opacity:0.461847;stroke:#000000;stroke-width:0.357143;stroke-opacity:0.971888;paint-order:stroke markers fill" />
    <path
       transform="scale(0.26458333)"
       id="path1085"
       d="m 363.9935,591.62368 c -0.55597,-0.45737 -0.68939,-0.84812 -0.51555,-1.50992 0.22597,-0.86021 0.24203,-0.86477 0.43953,-0.1247 0.11275,0.42249 0.54202,0.94853 0.95394,1.16898 0.60466,0.32361 0.7121,0.3048 0.55768,-0.0976 -0.14211,-0.37034 0.0435,-0.45354 0.72233,-0.32377 1.15853,0.22146 1.1458,0.31009 -0.14011,0.97505 -1.27009,0.65679 -1.10357,0.66406 -2.01782,-0.088 z"
       style="fill:#a06400;fill-opacity:0.461847;stroke:#000000;stroke-width:0.357143;stroke-opacity:0.971888;paint-order:stroke markers fill" />
    <path
       transform="scale(0.26458333)"
       id="path1087"
       d="m 387.73019,606.51665 c -15.68946,-2.30449 -33.04102,-13.99342 -42.90473,-28.90289 -6.22694,-9.41231 -7.30721,-13.3471 -7.64797,-27.85714 -0.36023,-15.33858 0.66626,-23.37815 3.77413,-29.55939 2.77331,-5.51585 9.00901,-14.09362 13.46416,-18.52117 3.71507,-3.69207 8.05283,-6.55875 15.64729,-10.3408 10.67641,-5.31685 16.879,-6.80436 26.98569,-6.47171 6.59966,0.21722 9.2026,0.68426 15.55197,2.79045 22.12985,7.34085 37.08755,24.13772 41.67991,46.80484 0.70784,3.49376 0.82009,5.12319 0.82009,11.90492 0,6.79858 -0.11134,8.40692 -0.82638,11.93783 -1.65735,8.18402 -4.87707,15.92813 -9.39457,22.59589 -3.15303,4.65382 -10.18196,11.62532 -14.80261,14.68166 -7.95315,5.26064 -19.02824,9.54583 -28.25914,10.93407 -2.93304,0.4411 -11.09455,0.4431 -14.08784,0.004 z m -1.11905,-3.40438 c -0.11868,-0.11867 -0.42671,-0.13136 -0.68452,-0.0282 -0.28491,0.114 -0.20028,0.19863 0.21577,0.21577 0.37649,0.0155 0.58743,-0.0689 0.46875,-0.18758 z m -1.78571,-0.35714 c -0.11868,-0.11867 -0.42672,-0.13136 -0.68453,-0.0282 -0.2849,0.11401 -0.20027,0.19864 0.21578,0.21577 0.37648,0.0155 0.58742,-0.0689 0.46875,-0.18757 z m -2.85714,-0.71428 c -0.11868,-0.11868 -0.42672,-0.13137 -0.68453,-0.0282 -0.2849,0.114 -0.20028,0.19863 0.21578,0.21577 0.37648,0.0155 0.58742,-0.0689 0.46875,-0.18758 z m 24.56101,-0.67235 c 1.57143,-0.32532 4.26164,-1.0585 5.97826,-1.62929 3.36447,-1.11872 8.95203,-3.5642 8.70594,-3.81029 -0.0829,-0.0829 -0.76895,0.16392 -1.52459,0.54846 -4.08973,2.08121 -11.18002,4.03038 -18.51476,5.08983 l -4.64485,0.67092 3.57143,-0.13907 c 1.96428,-0.0765 4.85714,-0.40524 6.42857,-0.73056 z m -27.64994,-0.20827 c -1.06461,-0.37788 -1.99877,-0.62395 -2.0759,-0.54682 -0.18152,0.18152 2.77433,1.22903 3.47584,1.23178 0.29464,10e-4 -0.33534,-0.30708 -1.39994,-0.68496 z m 18.59472,-0.49931 c 3.85784,-0.48477 8.4511,-1.195 10.20724,-1.57829 18.47507,-4.03224 31.92361,-16.12274 37.57822,-33.78355 7.06376,-22.06199 2.41542,-44.83513 -12.13402,-59.44703 -13.913,-13.97272 -33.66836,-19.05079 -52.35347,-13.45733 -9.21234,2.75774 -18.00406,7.71336 -23.04518,12.98984 -3.12422,3.27008 -4.90257,5.78705 -7.39986,10.47331 -4.75514,8.92321 -6.72094,17.28802 -7.08523,30.14875 -0.21711,7.66464 0.15041,12.51202 1.33244,17.57407 1.22836,5.26049 3.73641,10.8376 4.62636,10.28758 0.50997,-0.31518 1.05295,-3.31773 2.32592,-12.86165 0.68119,-5.10714 1.57452,-10.49107 1.98518,-11.96429 1.6614,-5.96012 4.44193,-9.98664 10.85159,-15.71428 5.01326,-4.47983 8.09234,-6.47813 11.91009,-7.72956 3.02409,-0.99127 3.32748,-1.02044 10.61308,-1.02044 8.09941,0 10.31585,0.2831 15.59087,1.99139 9.44327,3.05817 17.15368,9.20427 21.50347,17.14082 5.70606,10.41116 5.26754,25.26948 -1.03406,35.0371 -3.95813,6.1352 -9.57541,10.16665 -24.59523,17.65171 -8.15533,4.06418 -10.06586,5.14326 -9.10616,5.14326 0.66797,0 4.37091,-0.39663 8.22875,-0.88141 z m -13.26621,-0.0114 c 0,-0.40486 -0.41439,-0.52901 -1.69643,-0.50827 l -1.69643,0.0275 1.42857,0.47083 c 1.90668,0.62839 1.96429,0.62868 1.96429,0.01 z m -8.21429,-0.53572 c -0.29464,-0.19041 -0.69643,-0.3462 -0.89285,-0.3462 -0.19643,0 -0.11608,0.15579 0.17857,0.3462 0.29464,0.19042 0.69643,0.34621 0.89285,0.34621 0.19643,0 0.11608,-0.15579 -0.17857,-0.34621 z m -2.14285,-0.89285 c -0.49108,-0.28073 -1.05358,-0.51041 -1.25,-0.51041 -0.19643,0 0.0446,0.22968 0.53571,0.51041 0.49107,0.28072 1.05357,0.5104 1.25,0.5104 0.19643,0 -0.0446,-0.22968 -0.53571,-0.5104 z m 13.21428,0.0292 c 1.34747,-0.16052 6.22073,-1.61522 6.01666,-1.79601 -0.0681,-0.0603 -1.40952,-1e-4 -2.98094,0.13383 -2.0625,0.17577 -3.90013,0.0671 -6.60715,-0.3906 -4.43292,-0.74957 -4.24639,-0.73401 -3.57143,-0.29782 0.47619,0.30774 0.47619,0.34403 0,0.32658 -0.29464,-0.0108 -0.85714,-0.15776 -1.25,-0.32658 l -0.71428,-0.30693 0.71428,-0.0523 c 0.50793,-0.0372 0.35315,-0.19134 -0.53571,-0.53364 -1.49092,-0.57416 -2.17253,-0.65936 -1.42857,-0.17857 0.47619,0.30774 0.47619,0.34437 0,0.32975 -0.75631,-0.0232 -4.21956,-1.69246 -3.58642,-1.7286 0.2864,-0.0164 -0.90195,-0.84547 -2.64077,-1.8425 -2.44478,-1.40181 -3.22955,-1.70543 -3.46169,-1.33928 -0.22616,0.35673 -0.30153,0.3634 -0.30565,0.0271 -0.003,-0.24554 -0.31779,-0.44643 -0.69951,-0.44643 -0.38171,0 -0.94421,-0.35719 -1.25,-0.79375 -0.30578,-0.43659 -0.55596,-0.58782 -0.55596,-0.33609 0,0.25432 -0.18273,0.34475 -0.41125,0.20352 -0.28483,-0.17603 -0.2084,-0.40249 0.24866,-0.7367 0.39497,-0.2888 0.52423,-0.5992 0.32196,-0.77312 -0.18587,-0.15982 -1.36344,-1.24403 -2.61682,-2.40937 l -2.27887,-2.1188 0.76101,1.50363 c 0.41856,0.827 0.76102,1.65201 0.76102,1.83337 0,0.61004 -1.72496,0.67612 -2.38278,0.0913 -0.35332,-0.31413 -0.16263,-0.0367 0.42376,0.61656 1.09668,1.2217 4.30796,3.80586 4.74773,3.82055 0.13585,0.005 0.67617,0.40632 1.20071,0.89286 1.10376,1.02378 4.80853,3.14719 4.43417,2.54147 -0.34056,-0.55104 -0.0197,-0.51184 1.27019,0.15518 0.59779,0.30913 1.00536,0.64358 0.90571,0.74322 -0.0996,0.0996 -0.51636,0.002 -0.92604,-0.21747 -0.40968,-0.21926 -0.74488,-0.3159 -0.74488,-0.21477 0,0.3455 2.88083,1.65449 3.203,1.45538 0.50578,-0.31259 3.25035,0.914 2.98951,1.33605 -0.13137,0.21255 -0.0608,0.26898 0.16331,0.1305 0.21711,-0.13418 1.32677,0.085 2.46589,0.48711 2.03389,0.71792 3.71142,0.76053 8.32115,0.21139 z m 3.83929,-2.6064 c -0.54018,-0.0818 -1.42411,-0.0818 -1.96429,0 -0.54018,0.0818 -0.0982,0.14878 0.98214,0.14878 1.08036,0 1.52233,-0.067 0.98215,-0.14878 z m -6.5872,-0.63187 c -5.10645,-0.92629 -10.053,-2.96584 -14.57352,-6.00893 -10.51183,-7.07626 -15.69971,-15.35011 -16.50173,-26.31769 -0.21412,-2.92807 -0.28444,-3.19716 -0.51332,-1.96428 -0.93993,5.06297 0.80672,11.42657 4.85758,17.69777 1.89586,2.935 7.15259,8.55223 8.00337,8.55223 0.45192,0 0.44244,0.0732 -0.0578,0.44642 -0.87864,0.6555 -0.41427,2.05358 0.68211,2.05358 0.60617,0 0.8512,-0.20071 0.8512,-0.69724 0,-0.65083 0.0614,-0.64034 0.92253,0.15774 2.906,2.69319 13.33417,6.56355 17.6489,6.5503 0.76783,-0.003 0.25892,-0.18362 -1.31934,-0.4699 z m 10.69434,0.294 c -0.24554,-0.0991 -0.64732,-0.0991 -0.89286,0 -0.24553,0.0991 -0.0446,0.18014 0.44643,0.18014 0.49107,0 0.69197,-0.0811 0.44643,-0.18014 z m -19.375,-1.19205 c -0.29464,-0.19041 -0.69643,-0.3462 -0.89286,-0.3462 -0.19643,0 -0.11607,0.15579 0.17857,0.3462 0.29465,0.19042 0.69643,0.34621 0.89286,0.34621 0.19643,0 0.11607,-0.15579 -0.17857,-0.34621 z m 21.78571,-0.50248 c 1.27679,-0.27451 3.20536,-0.91906 4.28572,-1.43235 1.08036,-0.51329 1.64286,-0.82688 1.25,-0.69686 -8.23858,2.72656 -16.8728,3.02777 -23.30967,0.81316 -1.09236,-0.37582 -2.05035,-0.61906 -2.12889,-0.54053 -0.23221,0.23221 4.19108,1.57694 6.50999,1.97911 1.17857,0.20439 2.54464,0.44299 3.03571,0.5302 1.53437,0.27251 7.92772,-0.13042 10.35714,-0.65273 z m -2.5,-1.44801 c 11.48039,-1.75178 21.29,-8.9127 26.43801,-19.29951 2.56993,-5.18517 3.30314,-8.25498 3.32678,-13.92857 0.0234,-5.61158 -0.55589,-8.27926 -2.80378,-12.91194 -5.02874,-10.36375 -15.06714,-17.067 -28.56815,-19.07666 -1.57143,-0.23392 -5.02678,-0.44467 -7.67857,-0.46835 -4.17049,-0.0372 -5.13484,0.0668 -7.14286,0.77063 -2.85124,0.99939 -5.66303,2.89017 -10.27172,6.9072 -4.53122,3.94949 -7.86225,8.12463 -10.08155,12.63626 -2.53656,5.1566 -3.0238,7.26327 -3.01496,13.03572 0.007,4.51818 0.0822,5.0403 1.19643,8.30126 2.89172,8.46284 9.66512,16.1175 18.19024,20.55689 6.90578,3.59613 12.91772,4.62033 20.41013,3.47707 z m -18.57142,-1.08522 c -0.49108,-0.28072 -1.05358,-0.5104 -1.25,-0.5104 -0.19643,0 0.0446,0.22968 0.53571,0.5104 0.49107,0.28072 1.05357,0.5104 1.25,0.5104 0.19643,0 -0.0446,-0.22968 -0.53571,-0.5104 z m -16.28482,-5.98214 c -0.32389,-0.6384 -1.67796,-2.6875 -3.00907,-4.55358 -1.3311,-1.86607 -2.76825,-3.98645 -3.19367,-4.71196 -0.87107,-1.48555 -1.67389,-1.4813 -1.90241,0.01 -0.13091,0.85432 -0.15136,0.83361 -0.19938,-0.202 -0.0442,-0.95325 0.10132,-1.19277 0.83688,-1.37738 0.48971,-0.12291 0.80166,-0.36704 0.69321,-0.54252 -0.38416,-0.62158 -1.21076,-0.30593 -1.73647,0.6631 -0.29305,0.54018 -0.53925,0.79883 -0.54712,0.57479 -0.008,-0.22405 -0.56943,-0.47217 -1.24792,-0.55138 l -1.23363,-0.14401 0.76619,1.26565 c 1.29225,2.13466 2.46465,3.56844 2.85093,3.48654 0.20239,-0.0429 0.44911,0.14525 0.54825,0.41812 0.12533,0.34494 0.0301,0.40568 -0.3125,0.1993 -0.41337,-0.24901 -0.41263,-0.19809 0.005,0.31606 0.27353,0.3371 0.58017,0.53006 0.68143,0.4288 0.23849,-0.23848 1.14268,0.51003 1.14268,0.94595 0,0.18397 -0.20089,0.21873 -0.44643,0.0773 -0.24554,-0.14148 -0.0574,0.16983 0.41807,0.6918 0.47548,0.52197 0.94458,0.86897 1.04245,0.7711 0.0979,-0.0979 0.51008,0.10365 0.91603,0.44783 0.40595,0.34418 0.15012,-0.044 -0.5685,-0.86265 -1.57315,-1.79208 -2.58803,-3.29706 -2.37025,-3.51485 0.0878,-0.0878 0.74295,0.6003 1.45597,1.529 1.63198,2.12565 5.21848,5.79571 5.66375,5.79571 0.1847,0 0.0708,-0.52232 -0.25305,-1.16071 z m 56.32087,-2.29309 c 0.90375,-0.94862 2.09052,-2.36763 2.63726,-3.15334 0.94991,-1.36511 0.93377,-1.35717 -0.36335,0.17857 -0.74659,0.88393 -2.4155,2.64098 -3.7087,3.90455 -1.29319,1.26358 -1.86912,1.95937 -1.27984,1.5462 0.58929,-0.41317 1.81087,-1.52736 2.71463,-2.47598 z m -53.48758,-1.36763 c -1.33429,-1.47321 -2.49452,-2.67857 -2.57829,-2.67857 -0.21748,0 0.90213,1.3132 2.96881,3.48214 2.63847,2.76901 2.39914,2.27656 -0.39052,-0.80357 z m -3.33419,-4.10714 c -0.41961,-0.58929 -0.84328,-1.07143 -0.94149,-1.07143 -0.0982,0 0.16474,0.48214 0.58435,1.07143 0.41961,0.58928 0.84328,1.07143 0.94149,1.07143 0.0982,0 -0.16474,-0.48215 -0.58435,-1.07143 z m -4.28571,-0.71429 c -0.21025,-0.39285 -0.46263,-0.71428 -0.56085,-0.71428 -0.0982,0 -0.007,0.32143 0.2037,0.71428 0.21025,0.39286 0.46264,0.71429 0.56085,0.71429 0.0982,0 0.007,-0.32143 -0.2037,-0.71429 z m -0.94819,-1.62254 c -0.11632,-0.30312 -0.28808,-0.47452 -0.3817,-0.38091 -0.0936,0.0936 -0.0643,0.34162 0.0652,0.55112 0.35216,0.56981 0.55799,0.45911 0.3165,-0.17021 z m -1.06236,-3.64531 c -0.49891,-1.3259 -0.97385,-2.47768 -1.05542,-2.55953 -0.0816,-0.0818 -0.14832,0.6684 -0.14832,1.66722 0,0.99882 -0.0897,2.04974 -0.1993,2.33539 -0.14977,0.39032 0.0173,0.47796 0.67243,0.35272 0.47944,-0.0916 0.9804,0.009 1.11323,0.22414 0.59822,0.96794 0.45281,0.20027 -0.38262,-2.01994 z m 92.04326,-1.68015 c 2.00231,-4.27281 3.81489,-10.03346 4.66624,-14.83 1.26361,-7.11924 0.88727,-18.81809 -0.76427,-23.75771 l -0.35823,-1.07143 0.17258,1.25 c 2.02805,14.68909 0.21689,30.03791 -4.68839,39.73214 -0.47211,0.93304 -0.7649,1.69643 -0.65064,1.69643 0.11427,0 0.84449,-1.35874 1.62271,-3.01943 z M 343.23776,568.4174 c -1.35657,-3.35222 -1.77922,-4.10118 -1.38191,-2.44882 0.29151,1.21237 2.22964,5.57382 2.47688,5.57382 0.0933,0 -0.39942,-1.40625 -1.09497,-3.125 z m -1.64307,-4.44196 c -0.114,-0.2849 -0.19863,-0.20028 -0.21577,0.21578 -0.0155,0.37648 0.0689,0.58742 0.18758,0.46875 0.11867,-0.11868 0.13136,-0.42672 0.0282,-0.68453 z m 0.81043,-4.76421 c -0.18379,-1.17321 -0.43879,-5.4332 -0.56667,-9.46665 -0.36356,-11.46685 0.51853,-17.64136 3.95242,-27.66646 0.13457,-0.39286 -0.0707,-0.14934 -0.45611,0.54115 -1.00653,1.80318 -3.10024,8.26064 -3.76164,11.60171 -1.65632,8.3669 -1.55008,15.95067 0.34686,24.7609 0.66928,3.10844 0.9575,3.2447 0.48514,0.22935 z m 109.89642,-10.61525 c -0.0991,-0.24554 -0.18014,-0.0447 -0.18014,0.44642 0,0.49108 0.0811,0.69197 0.18014,0.44643 0.0991,-0.24553 0.0991,-0.64732 0,-0.89285 z m -91.93676,-7.05358 c 2.79093,-3.77552 9.01178,-9.44876 14.41277,-13.14402 0.37418,-0.25601 -0.28397,0.0449 -1.46254,0.66861 -7.22835,3.82549 -13.10414,9.94443 -16.28434,16.95819 -1.465,3.231 -1.2781,3.30099 0.42752,0.16008 0.80001,-1.47321 2.10798,-3.5625 2.90659,-4.64286 z m 91.95282,-0.0851 c -0.0854,-0.44425 -0.15856,-0.16488 -0.16252,0.62084 -0.004,0.78571 0.0659,1.1492 0.15532,0.80773 0.0894,-0.34146 0.0926,-0.98431 0.007,-1.42857 z m -32.70073,-1.25416 c -4.73318,-6.92635 -12.34781,-11.53465 -22.64698,-13.70574 -4.62691,-0.97536 -14.76287,-1.07507 -17.40488,-0.17121 -1.23955,0.42406 -1.32123,0.49124 -0.35714,0.29374 2.03413,-0.41671 12.07898,-0.26435 15.32332,0.23243 9.80447,1.50127 18.82845,6.30983 24.21496,12.90328 1.12379,1.37558 2.09518,2.50107 2.15865,2.50107 0.0635,0 -0.5161,-0.92411 -1.28793,-2.05357 z m 32.32753,-2.67857 c -0.0991,-0.24554 -0.18014,-0.0447 -0.18014,0.44643 0,0.49107 0.0811,0.69196 0.18014,0.44642 0.0991,-0.24553 0.0991,-0.64732 0,-0.89285 z m -0.34971,-2.12054 c -0.114,-0.2849 -0.19863,-0.20028 -0.21577,0.21578 -0.0155,0.37648 0.0689,0.58742 0.18758,0.46875 0.11868,-0.11868 0.13136,-0.42672 0.0282,-0.68453 z M 344.49447,520.82805 c 0.60042,-1.27679 1.58838,-3.16518 2.19547,-4.19643 1.42999,-2.42908 1.18701,-2.40766 -0.43718,0.0385 -1.83991,2.77111 -3.63667,6.47534 -4.50364,9.2848 -1.15862,3.75454 -0.86374,4.01273 0.4669,0.4088 0.65273,-1.76785 1.67803,-4.25893 2.27845,-5.53571 z m 98.64197,-4.28572 c -0.21025,-0.39285 -0.46263,-0.71428 -0.56085,-0.71428 -0.0982,0 -0.007,0.32143 0.20371,0.71428 0.21025,0.39286 0.46263,0.71429 0.56084,0.71429 0.0982,0 0.007,-0.32143 -0.2037,-0.71429 z"
       style="fill:#a06400;fill-opacity:0.461847;stroke:#000000;stroke-width:0.357143;stroke-opacity:0.971888;paint-order:stroke markers fill" />
    <path
       transform="scale(0.26458333)"
       id="path1089"
       d=""
       style="fill:#a06400;fill-opacity:0.461847;stroke:#000000;stroke-width:0.357143;stroke-opacity:0.971888;paint-order:stroke markers fill" />
    <path
       transform="scale(0.26458333)"
       id="path1091"
       d="m 341.94294,558.05527 c -0.96693,-4.95244 -1.26684,-7.8805 -1.26658,-12.36607 2.5e-4,-4.14225 0.25032,-6.88808 0.97986,-10.75893 0.42052,-2.23124 1.61187,-6.4673 2.48597,-8.83929 0.43063,-1.16859 0.39874,-0.88032 -0.0802,0.72511 -1.07438,3.60121 -1.83088,7.47012 -2.22382,11.37311 -0.28343,2.81522 -0.34479,4.81133 -0.28406,9.24107 0.0623,4.54355 0.13673,6.33651 0.37141,8.9443 0.14009,1.55683 0.14834,2.35112 0.0174,1.6807 z"
       style="fill:#a06400;fill-opacity:0.461847;stroke:#000000;stroke-width:0.0892857;stroke-opacity:0.971888;paint-order:stroke markers fill" />
    <path
       transform="scale(0.26458333)"
       id="path1093"
       d="m 341.53312,555.35438 c -0.6156,-3.81774 -0.75834,-5.6594 -0.75603,-9.75447 0.002,-3.08067 0.0824,-4.68151 0.34195,-6.78571 0.24111,-1.95478 0.68044,-4.35361 1.11195,-6.07143 0.4742,-1.88776 1.26055,-4.61838 1.31446,-4.56447 0.0192,0.0192 -0.126,0.69241 -0.3226,1.49609 -0.96332,3.93808 -1.52895,8.0326 -1.70664,12.35409 -0.094,2.28658 0.0177,9.96844 0.17731,12.1875 0.0477,0.66295 0.11347,1.57701 0.14621,2.03125 0.0327,0.45425 0.0395,0.8259 0.015,0.8259 -0.0245,0 -0.16921,-0.77344 -0.32164,-1.71875 z"
       style="fill:#a06400;fill-opacity:0.461847;stroke:#000000;stroke-width:0.0892857;stroke-opacity:0.971888;paint-order:stroke markers fill" />
    <path
       transform="scale(0.26458333)"
       id="path1095"
       d="m 341.43762,554.30841 c -0.51045,-3.4475 -0.67101,-6.69323 -0.54385,-10.99377 0.0849,-2.87057 0.21285,-4.19388 0.67012,-6.92972 0.2896,-1.73264 1.17758,-5.61774 1.2642,-5.53112 0.023,0.023 -0.0786,0.63824 -0.2259,1.36718 -0.52075,2.57795 -0.91536,5.71381 -1.09371,8.69143 -0.12169,2.0317 -0.0549,10.46376 0.10267,12.96911 0.0548,0.87185 0.0839,1.63274 0.0645,1.69086 -0.0194,0.0581 -0.12648,-0.51066 -0.23802,-1.26397 z"
       style="fill:#a06400;fill-opacity:0.461847;stroke:#000000;stroke-width:0.0892857;stroke-opacity:0.971888;paint-order:stroke markers fill" />
    <path
       transform="scale(0.26458333)"
       id="path1097"
       d="m 341.31103,552.85289 c -0.30155,-2.55369 -0.36456,-3.80786 -0.35992,-7.16369 0.005,-3.70238 0.0978,-5.3368 0.43816,-7.72322 0.22472,-1.57579 0.8135,-4.64787 0.90683,-4.73158 0.0277,-0.0249 0.0237,0.11551 -0.009,0.31194 -0.79222,4.76273 -0.95368,7.83807 -0.84378,16.07136 0.0328,2.45533 0.0502,4.47363 0.0387,4.48513 -0.0115,0.0115 -0.0884,-0.55097 -0.17097,-1.24994 z"
       style="fill:#a06400;fill-opacity:0.461847;stroke:#000000;stroke-width:0.0892857;stroke-opacity:0.971888;paint-order:stroke markers fill" />
    <path
       transform="scale(0.26458333)"
       id="path1099"
       d="m 341.26077,551.87223 c -0.29306,-2.95701 -0.33731,-8.34106 -0.0934,-11.3616 0.0983,-1.21743 0.39198,-3.3779 0.57646,-4.24107 0.14205,-0.66467 0.14582,-0.73177 -0.0915,1.62936 -0.25147,2.50183 -0.33738,5.74809 -0.27763,10.49117 0.0317,2.51674 0.0434,4.57589 0.026,4.57589 -0.0174,0 -0.0804,-0.49218 -0.14,-1.09375 z"
       style="fill:#a06400;fill-opacity:0.461847;stroke:#000000;stroke-width:0.0892857;stroke-opacity:0.971888;paint-order:stroke markers fill" />
    <path
       transform="scale(0.26458333)"
       id="path1101"
       d="m 341.22845,550.77848 c -0.0363,-0.44196 -0.0921,-2.18973 -0.12402,-3.88392 -0.0601,-3.1933 0.0456,-6.08904 0.28356,-7.76786 l 0.12025,-0.84822 -0.0522,0.80358 c -0.0287,0.44196 -0.0768,3.43526 -0.1069,6.65178 -0.0338,3.61471 -0.0799,5.54132 -0.12068,5.04464 z"
       style="fill:#a06400;fill-opacity:0.461847;stroke:#000000;stroke-width:0.0892857;stroke-opacity:0.971888;paint-order:stroke markers fill" />
    <path
       transform="scale(0.26458333)"
       id="path1103"
       d="m 341.84119,556.40003 c -0.0306,-0.0798 -0.0593,-0.39291 -0.0637,-0.69581 -0.007,-0.50783 -0.0148,-0.52737 -0.0944,-0.25077 -0.10017,0.34807 -0.18017,0.31342 -0.22744,-0.0985 -0.0659,-0.57376 -0.0891,-0.73853 -0.11656,-0.82646 -0.0441,-0.14113 -0.0924,-0.60066 -0.0932,-0.88652 -4.1e-4,-0.14384 -0.0363,-0.30456 -0.0798,-0.35715 -0.0435,-0.0526 -0.0806,-0.19606 -0.0824,-0.31883 -0.005,-0.34756 -0.0746,-0.99522 -0.14348,-1.33928 -0.0467,-0.23327 -0.0383,-0.27855 0.0329,-0.17857 0.0803,0.11267 0.0957,0.10488 0.0968,-0.0491 7.5e-4,-0.10067 -0.0357,-0.2212 -0.081,-0.26786 -0.0453,-0.0466 -0.10856,-0.24553 -0.14061,-0.44196 -0.043,-0.26383 -0.0335,-0.32215 0.0363,-0.22322 0.0753,0.10656 0.0949,0.0783 0.096,-0.13839 7.5e-4,-0.14977 -0.0396,-0.31324 -0.0896,-0.36326 -0.0819,-0.0819 -0.11359,-0.69776 -0.073,-1.41799 0.0412,-0.73119 -0.047,-2.50957 -0.13111,-2.64429 -0.0684,-0.10959 -0.0667,-0.25053 0.006,-0.4955 0.14505,-0.48761 0.24,-3.1011 0.10973,-3.02059 -0.0716,0.0443 -0.0819,-0.0974 -0.0367,-0.50511 0.0345,-0.31166 0.0972,-0.58004 0.13933,-0.59641 0.0421,-0.0164 0.0737,-0.13691 0.0702,-0.26786 -0.006,-0.21681 -0.0138,-0.22213 -0.09,-0.0595 -0.0571,0.12186 -0.0647,0.0368 -0.0238,-0.26786 0.033,-0.24554 0.0713,-0.58705 0.0851,-0.75893 0.0377,-0.46803 0.12425,-1.25964 0.17083,-1.5625 0.0227,-0.14732 0.0547,-0.41613 0.0712,-0.59735 0.0165,-0.18123 0.0788,-0.38826 0.1384,-0.46007 0.0829,-0.0999 0.0835,-0.13886 0.003,-0.16584 -0.0814,-0.0271 -0.0811,-0.0815 0.001,-0.23527 0.0589,-0.11 0.0831,-0.27546 0.0538,-0.36769 -0.0293,-0.0922 -0.012,-0.19314 0.0383,-0.22426 0.0504,-0.0311 0.0923,-0.14499 0.0931,-0.25305 0.002,-0.30946 0.0538,-0.6295 0.12771,-0.79487 0.0373,-0.0836 0.0447,-0.18953 0.0163,-0.23542 -0.0284,-0.0459 0.009,-0.13351 0.0825,-0.19469 0.1013,-0.0841 0.10951,-0.14082 0.0336,-0.23228 -0.0767,-0.0924 -0.0664,-0.13407 0.0435,-0.17628 0.16934,-0.065 0.19443,-0.30272 0.0324,-0.30684 -0.0627,-0.002 -0.0333,-0.0648 0.067,-0.14417 0.13046,-0.10326 0.14703,-0.1531 0.0615,-0.185 -0.0906,-0.0338 -0.0824,-0.0819 0.0362,-0.21296 0.10583,-0.11695 0.11795,-0.16932 0.0392,-0.16932 -0.0866,0 -0.0896,-0.0295 -0.0123,-0.12261 0.056,-0.0674 0.0782,-0.18391 0.0495,-0.25882 -0.0288,-0.0749 -0.0111,-0.16166 0.0392,-0.19275 0.0503,-0.0311 0.0704,-0.11145 0.0446,-0.17857 -0.0257,-0.0671 -0.003,-0.14897 0.05,-0.18188 0.0533,-0.0329 0.0726,-0.099 0.043,-0.14688 -0.0296,-0.0479 -0.005,-0.14553 0.0541,-0.21704 0.0593,-0.0715 0.078,-0.13002 0.0414,-0.13002 -0.0366,0 -0.0179,-0.0585 0.0414,-0.13002 0.0593,-0.0715 0.0837,-0.16918 0.0541,-0.21704 -0.0296,-0.0479 -0.0102,-0.11396 0.043,-0.14687 0.0533,-0.0329 0.0758,-0.11476 0.05,-0.18188 -0.0258,-0.0671 -0.008,-0.14619 0.04,-0.17571 0.0478,-0.0295 0.0687,-0.083 0.0466,-0.11873 -0.0221,-0.0358 -0.005,-0.12228 0.0384,-0.19222 0.0641,-0.10374 0.0911,-0.0947 0.14644,0.0489 0.0502,0.1303 0.12016,-0.0328 0.26909,-0.6275 0.29272,-1.16879 0.19817,-0.52898 -0.2243,1.51786 -0.38672,1.87362 -0.79574,4.46981 -1.04796,6.65178 -0.30131,2.60658 -0.2647,13.78955 0.0562,17.18069 0.0825,0.8717 0.0721,1.09334 -0.0378,0.80693 z m -0.23945,-2.27333 c -0.0393,-0.71055 -0.0594,-0.81862 -0.0831,-0.44643 -0.0357,0.55976 -0.004,1.25958 0.0617,1.36755 0.0737,0.12083 0.0752,0.0535 0.0214,-0.92112 z m -0.20078,-1.13669 c -0.0226,-0.0869 -0.0426,-0.0374 -0.0445,0.1099 -0.002,0.14732 0.0167,0.2184 0.0412,0.15795 0.0245,-0.0605 0.026,-0.18098 0.003,-0.26785 z m -0.0194,-1.98213 c -0.0991,-0.53594 -0.18678,-0.13022 -0.11868,0.5493 0.0358,0.35743 0.0757,0.77041 0.0886,0.91773 0.0129,0.14732 0.0377,-0.0536 0.0551,-0.44643 0.0174,-0.39285 0.006,-0.85213 -0.025,-1.0206 z m -0.0237,-7.37225 c 0.0394,-4.45399 -0.0337,-4.87327 -0.19471,-1.11607 -0.10394,2.42604 -0.0154,8.23974 0.0972,6.38392 0.0328,-0.54017 0.0767,-2.91071 0.0975,-5.26785 z m 0.27676,-5.89286 0.0491,-0.89286 -0.11867,0.66965 c -0.0964,0.54402 -0.0974,1.25118 -0.002,1.14149 0.0122,-0.014 0.0443,-0.42721 0.0713,-0.91828 z m 0.12253,-1.13281 c -0.0285,-0.0712 -0.0497,-0.0501 -0.0539,0.0539 -0.004,0.0941 0.0172,0.14686 0.0469,0.11719 0.0297,-0.0297 0.0328,-0.10668 0.007,-0.17113 z m 0.23395,-1.1663 c 0.14822,-1.33443 0.14732,-1.35647 -0.0245,-0.60268 -0.19443,0.85299 -0.21571,1.07143 -0.10436,1.07143 0.0422,0 0.10022,-0.21093 0.12886,-0.46875 z m 0.21248,-1.60156 c -0.0285,-0.0712 -0.0497,-0.0501 -0.0539,0.0539 -0.004,0.0941 0.0172,0.14686 0.0469,0.11719 0.0297,-0.0297 0.0328,-0.10668 0.007,-0.17113 z m 0.37203,-1.56115 c 0.10502,-0.52409 0.1764,-0.96745 0.15861,-0.98523 -0.0277,-0.0277 -0.50235,1.75869 -0.50235,1.89076 0,0.0261 0.0344,0.0474 0.0764,0.0474 0.042,0 0.16232,-0.4288 0.26734,-0.95289 z"
       style="fill:#a06400;fill-opacity:0.461847;stroke:#000000;stroke-width:0.0892857;stroke-opacity:0.971888;paint-order:stroke markers fill" />
    <path
       transform="scale(0.26458333)"
       id="path1105"
       d="m 341.52123,555.64198 c -0.0223,-0.29426 -0.35843,-2.48634 -0.39667,-2.58671 -0.0281,-0.0737 -0.0744,-0.57589 -0.10291,-1.11607 -0.0285,-0.54018 -0.0689,-1.20313 -0.0896,-1.47322 -0.0207,-0.27008 -0.0587,-1.30804 -0.0844,-2.30657 -0.0257,-0.99852 -0.0789,-1.96281 -0.11818,-2.14285 -0.0393,-0.18005 -0.0363,-0.46799 0.007,-0.63986 0.066,-0.26412 0.17493,-3.1359 0.16937,-4.46429 -0.003,-0.60986 0.33192,-3.3813 0.43024,-3.56503 0.0475,-0.0888 0.0652,-0.18268 0.0393,-0.20859 -0.0645,-0.0645 0.32205,-2.22922 0.41979,-2.35066 0.0432,-0.0536 0.053,-0.12297 0.0219,-0.1541 -0.0311,-0.0311 -0.006,-0.11731 0.0554,-0.19154 0.0616,-0.0742 0.0892,-0.19444 0.0613,-0.26715 -0.0279,-0.0727 -0.01,-0.15765 0.0407,-0.18874 0.0503,-0.0311 0.0685,-0.11636 0.0405,-0.18949 -0.0281,-0.0731 -0.0233,-0.17773 0.0105,-0.23247 0.0338,-0.0547 0.0745,-0.21841 0.0904,-0.36373 0.0159,-0.14532 0.15449,-0.73644 0.30795,-1.31359 0.20669,-0.77737 0.31061,-1.03724 0.40093,-1.00259 0.067,0.0257 0.12192,-0.004 0.12192,-0.0669 0,-0.0625 0.019,-0.0947 0.0423,-0.0715 0.0232,0.0232 -0.0738,0.64266 -0.21566,1.37649 -0.31254,1.6168 -0.74805,4.38297 -0.94806,6.02173 -0.19855,1.62669 -0.28116,10.23223 -0.13651,14.21883 0.0899,2.47657 0.086,2.86593 -0.0303,3.08036 -0.0732,0.135 -0.13477,0.2242 -0.13674,0.19823 z m 0.11003,-1.31439 c -0.0535,-0.97104 -0.0983,-1.00851 -0.10655,-0.0893 -0.004,0.42968 0.0271,0.78125 0.0688,0.78125 0.0417,0 0.0587,-0.31139 0.0377,-0.69197 z m -0.23118,-1.28906 c -0.0285,-0.0712 -0.0497,-0.0501 -0.0539,0.0539 -0.004,0.0941 0.0172,0.14686 0.0469,0.11719 0.0297,-0.0297 0.0328,-0.10668 0.007,-0.17113 z m -0.0362,-2.16784 c -0.0409,-0.0731 -0.0686,0.14824 -0.0645,0.51483 0.0109,0.97789 0.0723,1.18096 0.10612,0.35135 0.0166,-0.40592 -0.002,-0.7957 -0.0416,-0.86618 z m -0.14242,-1.49287 c -0.0285,-0.0712 -0.0497,-0.0501 -0.054,0.0539 -0.004,0.0941 0.0172,0.14686 0.0469,0.11719 0.0297,-0.0297 0.0328,-0.10668 0.007,-0.17113 z m 0.10939,-2.34934 c 0.01,-1.719 -0.087,-3.61607 -0.18417,-3.61607 -0.0415,0 -0.0727,0.99442 -0.0692,2.20982 0.004,1.41724 0.0357,2.14578 0.0883,2.03125 0.0536,-0.11678 0.0689,0.13038 0.0442,0.71429 -0.0289,0.68255 -0.02,0.78771 0.0378,0.44643 0.0416,-0.24554 0.079,-1.04911 0.0831,-1.78572 z m 0.014,-6.38392 -0.0857,-0.66965 0.0329,0.89286 c 0.0203,0.5512 0.006,0.79036 -0.0387,0.625 -0.0546,-0.20387 -0.0714,-0.11855 -0.0705,0.35714 9.4e-4,0.49303 0.0151,0.55902 0.067,0.3125 0.049,-0.23271 0.0738,-0.0845 0.097,0.58036 l 0.0312,0.89286 0.0263,-1.16072 c 0.0144,-0.63839 -0.0123,-1.46205 -0.0595,-1.83035 z m 0.0552,-0.9096 c -0.0285,-0.0712 -0.0497,-0.0501 -0.0539,0.0539 -0.004,0.0941 0.0172,0.14686 0.0469,0.11719 0.0297,-0.0297 0.0328,-0.10668 0.007,-0.17113 z m 0.27732,-2.43862 5.5e-4,-0.35714 -0.0741,0.3125 c -0.0766,0.32318 -0.11786,0.98224 -0.081,1.29464 0.0275,0.23348 0.15384,-0.78803 0.15455,-1.25 z m 0.0798,-0.68638 c -0.0285,-0.0712 -0.0497,-0.0501 -0.0539,0.0539 -0.004,0.0941 0.0172,0.14686 0.0469,0.11719 0.0297,-0.0297 0.0328,-0.10668 0.007,-0.17113 z m 0.13857,-1.0741 c -0.0922,-0.1914 -0.0986,-0.18505 -0.10423,0.10423 -0.005,0.2348 0.0187,0.28326 0.0982,0.20381 0.0771,-0.0771 0.0786,-0.15734 0.006,-0.30804 z m 0.19267,-1.12799 c -0.0703,-0.0943 -0.21187,0.74107 -0.15362,0.90625 0.0524,0.14863 0.0824,0.066 0.12312,-0.33921 0.0296,-0.29464 0.0433,-0.54981 0.0305,-0.56704 z m 0.11519,-0.56577 c -0.0285,-0.0712 -0.0497,-0.0501 -0.0539,0.0539 -0.004,0.0941 0.0172,0.14686 0.0469,0.11719 0.0297,-0.0297 0.0328,-0.10668 0.007,-0.17113 z m 0.13544,-0.89397 c -0.0833,-0.0833 -0.10715,-0.0595 -0.10715,0.10714 0,0.16667 0.0238,0.19048 0.10715,0.10714 0.0833,-0.0833 0.0833,-0.13095 0,-0.21428 z m 0.374,-1.28941 c 0.0853,-0.50476 -0.0777,-0.19266 -0.25306,0.48459 -0.0799,0.30869 -0.11492,0.61003 -0.0777,0.66965 0.0647,0.10365 0.19502,-0.3511 0.33077,-1.15424 z"
       style="fill:#a06400;fill-opacity:0.461847;stroke:#000000;stroke-width:0.0892857;stroke-opacity:0.971888;paint-order:stroke markers fill" />
    <path
       transform="scale(0.26458333)"
       id="path1107"
       d="m 341.27542,553.63563 c -0.18093,-1.22633 -0.26289,-2.39594 -0.44112,-6.29465 -0.0764,-1.6723 -0.0799,-1.33975 0.048,-4.55357 0.0967,-2.42865 0.24147,-4.12011 0.45845,-5.35714 0.0474,-0.27009 0.15201,-0.89286 0.23252,-1.38393 0.17674,-1.07802 0.32541,-1.49221 0.24838,-0.69196 -0.0392,0.40705 -0.0244,0.55803 0.0545,0.55803 0.0692,0 0.0941,-0.0957 0.0692,-0.26567 -0.0215,-0.14613 -0.006,-0.27671 0.0333,-0.29018 0.12902,-0.0437 0.20188,-0.88342 0.083,-0.95687 -0.15285,-0.0945 0.0492,-1.26172 0.20789,-1.20083 0.0724,0.0278 0.15167,-0.12859 0.22946,-0.45285 0.23869,-0.99497 0.1787,-0.3777 -0.16999,1.74901 -0.71131,4.33842 -0.67744,3.73424 -0.67744,12.08704 0,4.125 -0.0192,7.35937 -0.0427,7.1875 -0.0279,-0.2044 -0.0588,-0.05 -0.0893,0.44642 l -0.0466,0.75893 z m 0.12466,-0.5971 c -0.0285,-0.0712 -0.0497,-0.0501 -0.0539,0.0539 -0.004,0.0941 0.0172,0.14686 0.0469,0.11719 0.0297,-0.0297 0.0328,-0.10668 0.007,-0.17113 z m 0.0283,-1.45647 c 0,-0.44643 -0.0368,-0.75893 -0.0893,-0.75893 -0.099,0 -0.12677,1.36133 -0.0298,1.45833 0.11061,0.11061 0.11905,0.061 0.11905,-0.6994 z m -0.20686,-2.20424 c -0.0285,-0.0712 -0.0497,-0.0501 -0.054,0.0539 -0.004,0.0941 0.0172,0.14686 0.0469,0.11719 0.0297,-0.0297 0.0328,-0.10668 0.007,-0.17113 z m 0.10804,-2.70648 c 0.009,-2.15034 -0.0532,-3.25893 -0.18195,-3.25893 -0.0914,0 -0.10143,3.08986 -0.0152,4.65116 0.0916,1.65723 0.18757,0.97916 0.19711,-1.39223 z m 0.029,-6.27149 c -0.0653,-0.37346 -0.0824,-0.28454 -0.1416,0.73396 -0.0462,0.79459 -0.0376,1.16882 0.0274,1.19047 0.0534,0.0178 0.10346,0.33048 0.11469,0.71611 0.011,0.37649 0.0321,0.032 0.0469,-0.76554 0.0148,-0.79754 -0.007,-1.64129 -0.0474,-1.875 z m 0.0416,-0.66489 c -0.0285,-0.0712 -0.0497,-0.0501 -0.0539,0.0539 -0.004,0.0941 0.0172,0.14686 0.0469,0.11719 0.0297,-0.0297 0.0328,-0.10668 0.007,-0.17113 z m 0.27992,-2.2154 c 0.003,-0.37277 -0.0205,-0.51649 -0.066,-0.40179 -0.1126,0.28343 -0.2017,1.28586 -0.12508,1.40739 0.0985,0.15631 0.18516,-0.29949 0.19112,-1.0056 z m 0.0772,-0.9096 c -0.0285,-0.0712 -0.0497,-0.0501 -0.0539,0.0539 -0.004,0.0941 0.0172,0.14686 0.0469,0.11719 0.0297,-0.0297 0.0328,-0.10668 0.007,-0.17113 z m 0.44643,-2.76786 c -0.0285,-0.0712 -0.0497,-0.0501 -0.0539,0.0539 -0.004,0.0941 0.0172,0.14686 0.0469,0.11719 0.0297,-0.0297 0.0328,-0.10668 0.007,-0.17113 z"
       style="fill:#a06400;fill-opacity:0.461847;stroke:#000000;stroke-width:0.0892857;stroke-opacity:0.971888;paint-order:stroke markers fill" />
    <path
       transform="scale(0.26458333)"
       id="path1109"
       d="m 341.32002,553.65795 c -0.0208,-0.20871 -0.005,-0.39286 0.0353,-0.40923 0.0402,-0.0164 0.0731,-0.0891 0.0731,-0.16152 0,-0.0725 -0.0353,-0.10995 -0.0784,-0.0833 -0.10073,0.0622 -0.19353,-0.40135 -0.17516,-0.87498 0.0128,-0.32935 0.0181,-0.33761 0.0503,-0.0781 0.0198,0.15959 0.0704,0.29017 0.11255,0.29017 0.13039,0 0.20116,-0.53107 0.13807,-1.03605 -0.0656,-0.52478 -0.22508,-0.65926 -0.22729,-0.19162 -7.5e-4,0.15959 -0.0351,0.34344 -0.0764,0.40854 -0.0441,0.0695 -0.10041,-0.39135 -0.13647,-1.11607 -0.0338,-0.67894 -0.0987,-1.97774 -0.14413,-2.88622 -0.11284,-2.25399 0.0867,-7.0721 0.38265,-9.24108 l 0.10966,-0.80357 0.0266,0.55804 c 0.0235,0.49404 0.1269,0.72301 0.21151,0.46851 0.0526,-0.15809 -0.0115,14.39876 -0.0659,14.97792 -0.0603,0.64203 -0.18058,0.73308 -0.23585,0.17857 z m -0.0985,-4.28013 c -0.0285,-0.0712 -0.0497,-0.0501 -0.054,0.0539 -0.004,0.0941 0.0172,0.14686 0.0469,0.11719 0.0297,-0.0297 0.0328,-0.10668 0.007,-0.17113 z m 0.13483,-2.90765 c -0.004,-2.30937 -0.0506,-3.05776 -0.19234,-3.05776 -0.11127,0 -0.18855,1.89837 -0.13558,3.33042 0.0671,1.81465 0.1236,2.33879 0.23954,2.22286 0.0588,-0.0589 0.0907,-0.95918 0.0884,-2.49552 z m 0.0177,-6.18276 -0.0606,-0.22321 -0.0676,0.22321 c -0.10928,0.36103 -0.0955,1.68435 0.0256,2.45536 l 0.1122,0.71429 0.0255,-1.47322 c 0.014,-0.81027 -0.002,-1.57366 -0.0351,-1.69643 z m 0.026,-0.55245 c -0.0285,-0.0712 -0.0497,-0.0501 -0.0539,0.0539 -0.004,0.0941 0.0172,0.14686 0.0469,0.11719 0.0297,-0.0297 0.0328,-0.10668 0.007,-0.17113 z"
       style="fill:#a06400;fill-opacity:0.461847;stroke:#000000;stroke-width:0.0892857;stroke-opacity:0.971888;paint-order:stroke markers fill" />
    <path
       transform="scale(0.26458333)"
       id="path1111"
       d="m 341.44526,550.93082 c -0.009,-0.0635 -0.0872,-0.10371 -0.17314,-0.0893 -0.13597,0.0228 -0.15965,-0.0646 -0.18246,-0.6734 -0.0176,-0.46919 0.004,-0.68067 0.067,-0.64205 0.0513,0.0317 0.0932,-0.007 0.0932,-0.0869 0,-0.0795 -0.036,-0.12224 -0.0799,-0.0951 -0.13273,0.082 -0.18866,-0.19775 -0.17431,-0.87205 l 0.0136,-0.64002 0.0534,0.55069 c 0.0537,0.55436 0.13059,0.74109 0.25424,0.61749 0.10255,-0.10249 0.11846,-9.3526 0.016,-9.28926 -0.0472,0.0292 -0.0701,0.0804 -0.0509,0.11385 0.0192,0.0334 -5.8e-4,0.14115 -0.044,0.23937 -0.0825,0.18659 -0.0183,-1.16295 0.0734,-1.54427 l 0.0493,-0.20498 0.12322,0.23751 c 0.0998,0.19236 0.12082,0.96959 0.1106,4.08891 -0.0112,3.42468 -0.10422,8.59625 -0.14906,8.28945 z"
       style="fill:#a06400;fill-opacity:0.461847;stroke:#000000;stroke-width:0.0892857;stroke-opacity:0.971888;paint-order:stroke markers fill" />
    <path
       transform="scale(0.26458333)"
       id="path1113"
       d="m 341.27212,550.764 c -0.14475,-0.0584 -0.15096,-1.1158 -0.007,-1.25937 0.0794,-0.0794 0.0688,-0.1178 -0.0446,-0.16134 -0.21218,-0.0814 -0.18924,-0.3569 0.0297,-0.3569 0.167,0 0.17857,0.0595 0.17857,0.91837 0,0.5051 -0.01,0.9152 -0.0223,0.91132 -0.0123,-0.004 -0.0725,-0.0273 -0.13393,-0.0521 z"
       style="fill:#a06400;fill-opacity:0.461847;stroke:#000000;stroke-width:0.0892857;stroke-opacity:0.971888;paint-order:stroke markers fill" />
    <path
       transform="scale(0.26458333)"
       id="path1115"
       d="m 383.55448,596.27061 c -3.27791,-0.55248 -8.1101,-2.19187 -11.72432,-3.97762 -1.85674,-0.9174 -2.96849,-1.60894 -3.92857,-2.44366 -0.34375,-0.29887 -0.66518,-0.53038 -0.71429,-0.51447 -0.0491,0.0159 -0.10159,0.19543 -0.11662,0.39892 -0.0899,1.21772 -1.97995,0.80661 -1.98126,-0.43096 -3.6e-4,-0.34314 0.17096,-0.64075 0.55569,-0.96531 0.30215,-0.25489 0.3146,-0.37152 0.0396,-0.37152 -0.33423,0 -0.99864,-0.50039 -2.17773,-1.6401 -4.72057,-4.56296 -7.87782,-9.29825 -9.67789,-14.515 -1.26822,-3.67543 -1.65569,-7.46384 -1.05152,-10.281 0.0538,-0.25087 0.13149,-0.42212 0.17264,-0.38055 0.0411,0.0416 0.15835,1.03986 0.26046,2.21843 0.45577,5.26078 1.38021,8.73345 3.3675,12.64998 2.35168,4.63467 6.0594,8.80061 11.23144,12.61949 4.30961,3.18208 8.66758,5.35421 13.34938,6.6537 0.5386,0.14949 1.8289,0.44913 2.86734,0.66586 1.03843,0.21673 1.90995,0.41594 1.9367,0.44269 0.10843,0.10843 -1.51651,0.0215 -2.40859,-0.12888 z m -0.5723,-0.3557 c -5.3527,-1.14323 -10.45276,-3.56251 -15.61851,-7.40883 -9.21711,-6.8629 -13.69582,-14.87331 -14.37853,-25.71673 -0.0791,-1.257 -0.16643,-1.09589 -0.30556,0.56398 -0.37077,4.42358 1.27372,9.87724 4.62167,15.32694 0.98709,1.60676 2.26613,3.24241 4.25898,5.44643 1.86758,2.06548 3.5262,3.56855 4.09388,3.70996 0.52089,0.12976 1.1054,0.48173 1.40357,0.84519 1.20012,1.46292 2.18402,2.16371 4.95105,3.52641 2.13629,1.05208 3.72873,1.69942 6.16071,2.5044 2.26176,0.74864 5.05542,1.45314 5.75893,1.45229 0.12277,-1.8e-4 -0.30302,-0.11267 -0.94619,-0.25004 z m -16.26839,-5.7391 c 0.0784,-0.062 0.16066,-0.30242 0.18528,-0.54117 0.0372,-0.36027 0.0101,-0.47017 -0.16751,-0.6813 -0.29901,-0.35535 -0.78738,-0.57478 -1.01186,-0.45465 -0.28261,0.15125 -0.45204,0.46437 -0.45204,0.83538 0,0.49374 0.46095,0.95334 0.95615,0.95334 0.19195,0 0.41244,-0.0502 0.48998,-0.1116 z"
       style="fill:#a06400;fill-opacity:0.461847;stroke:#000000;stroke-width:0.0892857;stroke-opacity:0.971888;paint-order:stroke markers fill" />
    <path
       transform="scale(0.26458333)"
       id="path1117"
       d="m 366.16051,587.95105 c -0.22098,-0.10034 -0.56336,-0.25927 -0.76083,-0.35318 -1.06664,-0.50726 -4.72184,-4.36308 -6.84295,-7.21855 -1.18365,-1.59344 -2.67625,-4.22701 -3.65069,-6.44136 -0.9231,-2.09768 -1.72034,-4.79834 -2.01369,-6.82144 -0.18221,-1.25659 -0.21398,-4.18625 -0.0472,-4.35302 0.0753,-0.0753 0.10109,0.0234 0.10109,0.38607 0,0.26793 0.0605,1.00923 0.13453,1.64732 0.77709,6.70156 3.0072,12.12893 6.98456,16.99815 1.43331,1.75471 4.20965,4.41757 6.3631,6.10299 0.36826,0.28822 0.28597,0.30451 -0.26791,0.053 z"
       style="fill:#a06400;fill-opacity:0.461847;stroke:#000000;stroke-width:0.0892857;stroke-opacity:0.971888;paint-order:stroke markers fill" />
    <path
       transform="scale(0.26458333)"
       id="path1119"
       d="m 365.68199,587.6521 c -0.69373,-0.34407 -1.27106,-0.83789 -2.78903,-2.38554 -2.48548,-2.5341 -4.33031,-4.82056 -5.61745,-6.96221 -2.10873,-3.50869 -3.41256,-6.71656 -4.11007,-10.11222 -0.24103,-1.17335 -0.46305,-4.23251 -0.32509,-4.47905 0.052,-0.0929 0.0984,0.12382 0.13861,0.64646 0.0775,1.00881 0.36084,2.82927 0.64432,4.14043 1.39697,6.46127 4.48608,11.89626 9.35301,16.45568 1.24034,1.16197 2.48408,2.26912 3.00565,2.67555 0.38305,0.2985 0.27493,0.30603 -0.29995,0.0209 z"
       style="fill:#a06400;fill-opacity:0.461847;stroke:#000000;stroke-width:0.0892857;stroke-opacity:0.971888;paint-order:stroke markers fill" />
    <path
       transform="scale(0.26458333)"
       id="path1121"
       d="m 353.04256,565.68176 c 0.004,-0.10401 0.0254,-0.12517 0.054,-0.0539 0.0258,0.0644 0.0226,0.14146 -0.007,0.17113 -0.0297,0.0297 -0.0508,-0.0231 -0.0469,-0.11719 z"
       style="fill:#a06400;fill-opacity:0.461847;stroke:#000000;stroke-width:0.0892857;stroke-opacity:0.971888;paint-order:stroke markers fill" />
    <path
       transform="scale(0.26458333)"
       id="path1123"
       d="m 349.83831,576.98399 c -0.93476,-1.46866 -0.93809,-1.47712 -0.54546,-1.38696 0.16784,0.0385 0.51472,0.0971 0.77084,0.13013 0.25612,0.033 0.49359,0.088 0.5277,0.12208 0.0341,0.0341 0.0154,0.21761 -0.0416,0.40778 -0.12906,0.43077 -0.132,1.02272 -0.007,1.4718 0.0524,0.18876 0.0806,0.35791 0.0626,0.37589 -0.018,0.018 -0.36304,-0.48634 -0.76681,-1.12072 z"
       style="fill:#a06400;fill-opacity:0.461847;stroke:#000000;stroke-width:0.0892857;stroke-opacity:0.971888;paint-order:stroke markers fill" />
    <path
       transform="scale(0.26458333)"
       id="path1125"
       d="m 350.38248,577.02849 c 6.7e-4,-0.24554 0.018,-0.33539 0.0385,-0.19967 0.0205,0.13572 0.02,0.33661 -10e-4,0.44643 -0.0212,0.10981 -0.038,-10e-4 -0.0373,-0.24676 z"
       style="fill:#a06400;fill-opacity:0.461847;stroke:#000000;stroke-width:0.0892857;stroke-opacity:0.971888;paint-order:stroke markers fill" />
    <path
       transform="scale(0.26458333)"
       id="path1127"
       d="m 353.16944,573.85043 c -0.33135,-0.16008 -0.60153,-0.17163 -0.9408,-0.0402 -0.12213,0.0473 -0.12524,-0.0379 -0.0282,-0.775 0.0599,-0.45548 0.11164,-1.13953 0.1149,-1.52011 0.003,-0.38058 0.0372,-0.69196 0.0754,-0.69196 0.0382,0 0.20336,0.35156 0.367,0.78125 0.62529,1.64195 0.89726,2.43277 0.83425,2.42581 -0.036,-0.004 -0.22608,-0.0849 -0.42251,-0.17976 z"
       style="fill:#a06400;fill-opacity:0.461847;stroke:#000000;stroke-width:0.0892857;stroke-opacity:0.971888;paint-order:stroke markers fill" />
    <path
       transform="scale(0.26458333)"
       id="path1129"
       d="m 353.1248,573.76956 c -0.0737,-0.0476 -0.30988,-0.0872 -0.52493,-0.0879 l -0.391,-10e-4 0.0549,-0.60268 c 0.0302,-0.33147 0.0815,-0.91853 0.11403,-1.30457 0.0389,-0.46167 0.0853,-0.65513 0.1356,-0.56526 0.0825,0.14742 0.96853,2.53144 0.96853,2.606 0,0.0747 -0.2142,0.0482 -0.35714,-0.0442 z"
       style="fill:#a06400;fill-opacity:0.461847;stroke:#000000;stroke-width:0.0892857;stroke-opacity:0.971888;paint-order:stroke markers fill" />
    <path
       transform="scale(0.26458333)"
       id="path1131"
       d="m 349.74642,576.70151 c -0.34656,-0.55374 -0.62032,-1.01659 -0.60834,-1.02857 0.0436,-0.0436 1.26562,0.17743 1.33822,0.24205 0.0411,0.0366 0.0123,0.31004 -0.0639,0.60769 -0.10657,0.41597 -0.1163,0.6053 -0.0421,0.81824 0.19206,0.55095 -0.006,0.3482 -0.62388,-0.63941 z"
       style="fill:#a06400;fill-opacity:0.461847;stroke:#000000;stroke-width:0.0892857;stroke-opacity:0.971888;paint-order:stroke markers fill" />
    <path
       transform="scale(0.26458333)"
       id="path1133"
       d="m 349.74894,576.57766 c -0.26073,-0.42551 -0.45928,-0.78844 -0.44122,-0.8065 0.0181,-0.0181 0.28466,0.014 0.59242,0.0712 l 0.55958,0.10406 -0.0659,0.31781 c -0.0363,0.17479 -0.0895,0.49089 -0.11836,0.70243 l -0.0524,0.38463 z"
       style="fill:#a06400;fill-opacity:0.461847;stroke:#000000;stroke-width:0.0892857;stroke-opacity:0.971888;paint-order:stroke markers fill" />
    <text
       id="text1137"
       y="242.14618"
       x="21.916101"
       style="font-size:19.75555556px;line-height:1.25;font-family:'Adobe Arabic';-inkscape-font-specification:'Adobe Arabic';stroke-width:0.264583;fill:#590000;fill-opacity:1;"
       xml:space="preserve"><tspan
         style="stroke-width:0.264583;fill:#590000;fill-opacity:1;font-size:19.75555556px;"
         y="242.14618"
         x="21.916101"
         id="tspan1135"
         sodipodi:role="line">#</tspan></text>
    <text
       id="text1141"
       y="242.68073"
       x="34.745037"
       style="font-size:9.87777px;line-height:1.25;font-family:'Adobe Arabic';-inkscape-font-specification:'Adobe Arabic';stroke-width:0.264583"
       xml:space="preserve"><tspan
         style="font-size:19.7556px;stroke-width:0.264583"
         y="242.68073"
         x="34.745037"
         id="tspan1139"
         sodipodi:role="line">16 Alien</tspan></text>
  </g>
</svg>
