<?xml version="1.0" encoding="UTF-8" standalone="no"?>
<svg
   xmlns:osb="http://www.openswatchbook.org/uri/2009/osb"
   xmlns:dc="http://purl.org/dc/elements/1.1/"
   xmlns:cc="http://creativecommons.org/ns#"
   xmlns:rdf="http://www.w3.org/1999/02/22-rdf-syntax-ns#"
   xmlns:svg="http://www.w3.org/2000/svg"
   xmlns="http://www.w3.org/2000/svg"
   xmlns:xlink="http://www.w3.org/1999/xlink"
   xmlns:sodipodi="http://sodipodi.sourceforge.net/DTD/sodipodi-0.dtd"
   xmlns:inkscape="http://www.inkscape.org/namespaces/inkscape"
   sodipodi:docname="cartoon character.svg"
   inkscape:version="1.0 (4035a4fb49, 2020-05-01)"
   id="svg8"
   version="1.1"
   viewBox="0 0 210 297"
   height="297mm"
   width="210mm">
  <defs
     id="defs2">
    <linearGradient
       osb:paint="solid"
       id="linearGradient1112">
      <stop
         id="stop1110"
         offset="0"
         style="stop-color:#000000;stop-opacity:1;" />
    </linearGradient>
    <linearGradient
       osb:paint="solid"
       id="linearGradient1078">
      <stop
         id="stop1076"
         offset="0"
         style="stop-color:#000000;stop-opacity:1;" />
    </linearGradient>
    <linearGradient
       osb:paint="solid"
       id="linearGradient1072">
      <stop
         id="stop1070"
         offset="0"
         style="stop-color:#000000;stop-opacity:1;" />
    </linearGradient>
    <linearGradient
       osb:paint="solid"
       id="linearGradient1066">
      <stop
         id="stop1064"
         offset="0"
         style="stop-color:#000000;stop-opacity:1;" />
    </linearGradient>
    <linearGradient
       osb:paint="solid"
       id="linearGradient1054">
      <stop
         id="stop1052"
         offset="0"
         style="stop-color:#000000;stop-opacity:1;" />
    </linearGradient>
    <linearGradient
       osb:paint="solid"
       id="linearGradient1048">
      <stop
         id="stop1046"
         offset="0"
         style="stop-color:#000000;stop-opacity:1;" />
    </linearGradient>
    <linearGradient
       osb:paint="solid"
       id="linearGradient1036">
      <stop
         id="stop1034"
         offset="0"
         style="stop-color:#000000;stop-opacity:1;" />
    </linearGradient>
    <linearGradient
       osb:paint="solid"
       id="linearGradient1030">
      <stop
         id="stop1028"
         offset="0"
         style="stop-color:#000000;stop-opacity:1;" />
    </linearGradient>
    <linearGradient
       osb:paint="solid"
       id="linearGradient871">
      <stop
         id="stop869"
         offset="0"
         style="stop-color:#000000;stop-opacity:1;" />
    </linearGradient>
    <linearGradient
       osb:paint="solid"
       id="linearGradient865">
      <stop
         id="stop863"
         offset="0"
         style="stop-color:#000000;stop-opacity:1;" />
    </linearGradient>
    <linearGradient
       osb:paint="solid"
       id="linearGradient859">
      <stop
         id="stop857"
         offset="0"
         style="stop-color:#000000;stop-opacity:1;" />
    </linearGradient>
    <linearGradient
       gradientUnits="userSpaceOnUse"
       y2="125.86607"
       x2="84.666668"
       y1="125.86607"
       x1="72.57143"
       id="linearGradient867"
       xlink:href="#linearGradient865"
       inkscape:collect="always" />
    <linearGradient
       gradientUnits="userSpaceOnUse"
       y2="124.35417"
       x2="95.250004"
       y1="124.35417"
       x1="83.154766"
       id="linearGradient873"
       xlink:href="#linearGradient871"
       inkscape:collect="always" />
    <linearGradient
       gradientUnits="userSpaceOnUse"
       y2="131.36298"
       x2="82.319009"
       y1="131.36298"
       x1="77.775427"
       id="linearGradient1032"
       xlink:href="#linearGradient1030"
       inkscape:collect="always" />
    <linearGradient
       gradientUnits="userSpaceOnUse"
       y2="129.4921"
       x2="90.069826"
       y1="129.4921"
       x1="85.526244"
       id="linearGradient1038"
       xlink:href="#linearGradient1036"
       inkscape:collect="always" />
    <linearGradient
       gradientUnits="userSpaceOnUse"
       y2="131.09569"
       x2="87.93168"
       y1="131.09569"
       x1="86.862601"
       id="linearGradient1050"
       xlink:href="#linearGradient1048"
       inkscape:collect="always" />
    <linearGradient
       gradientUnits="userSpaceOnUse"
       y2="131.89751"
       x2="82.319016"
       y1="131.89751"
       x1="81.249938"
       id="linearGradient1056"
       xlink:href="#linearGradient1054"
       inkscape:collect="always" />
    <linearGradient
       gradientUnits="userSpaceOnUse"
       y2="110.11504"
       x2="51.182113"
       y1="110.11504"
       x1="48.776688"
       id="linearGradient1068"
       xlink:href="#linearGradient1066"
       inkscape:collect="always" />
    <linearGradient
       gradientUnits="userSpaceOnUse"
       y2="106.23964"
       x2="50.380306"
       y1="106.23964"
       x1="47.97488"
       id="linearGradient1074"
       xlink:href="#linearGradient1072"
       inkscape:collect="always" />
    <linearGradient
       gradientUnits="userSpaceOnUse"
       y2="108.51143"
       x2="54.255714"
       y1="108.51143"
       x1="51.850289"
       id="linearGradient1080"
       xlink:href="#linearGradient1078"
       inkscape:collect="always" />
    <linearGradient
       gradientUnits="userSpaceOnUse"
       y2="108.87164"
       x2="73.325394"
       y1="108.87164"
       x1="43.767851"
       id="linearGradient1114"
       xlink:href="#linearGradient1112"
       inkscape:collect="always" />
  </defs>
  <sodipodi:namedview
     inkscape:window-maximized="1"
     inkscape:window-y="-8"
     inkscape:window-x="-8"
     inkscape:window-height="705"
     inkscape:window-width="1366"
     showgrid="false"
     inkscape:document-rotation="0"
     inkscape:current-layer="svg8"
     inkscape:document-units="mm"
     inkscape:cy="447.52944"
     inkscape:cx="214.0261"
     inkscape:zoom="0.69977474"
     inkscape:pageshadow="2"
     inkscape:pageopacity="0.0"
     borderopacity="1.0"
     bordercolor="#666666"
     pagecolor="#ffffff"
     id="base" />
  <metadata
     id="metadata5">
    <rdf:RDF>
      <cc:Work
         rdf:about="">
        <dc:format>image/svg+xml</dc:format>
        <dc:type
           rdf:resource="http://purl.org/dc/dcmitype/StillImage" />
        <dc:title></dc:title>
      </cc:Work>
    </rdf:RDF>
  </metadata>
  <g
     id="layer1"
     inkscape:groupmode="layer"
     inkscape:label="Layer 1">
    <path
       sodipodi:nodetypes="ccc"
       id="path835"
       d="m 119.44047,148.92262 c -31.427771,14.53434 -49.029561,33.46786 -65.011898,52.91666 l 4.535712,-1.5119"
       style="fill:none;stroke:#000000;stroke-width:0.264583px;stroke-linecap:butt;stroke-linejoin:miter;stroke-opacity:1" />
    <path
       sodipodi:nodetypes="cccc"
       id="path837"
       d="M 54.428572,201.83928 C 53.332597,171.6939 55.904275,133.93313 43.845239,98.273808 v 0 0"
       style="fill:none;stroke:#000000;stroke-width:0.264583px;stroke-linecap:butt;stroke-linejoin:miter;stroke-opacity:1" />
    <path
       sodipodi:nodetypes="cccccccccc"
       id="path839"
       d="M 43.845239,98.273808 C 51.961261,90.147823 66.180199,86.737728 89.958332,90.714284 77.128766,86.232331 71.317788,75.144648 47.624999,80.886905 v 0 C 55.608888,73.54619 66.736396,68.226373 84.666666,67.27976 68.227308,65.34513 51.434257,60.934643 37.041666,73.327381 41.884052,59.942244 24.564649,54.265556 14.363095,46.113094 21.085411,60.463793 25.415056,74.684143 25.702381,86.934523 1.4556625,92.745025 8.821822,115.491 2.2678571,130.77976 13.671236,115.22185 23.569046,96.768615 43.845239,98.273808 Z"
       style="fill:none;stroke:#000000;stroke-width:0.264583px;stroke-linecap:butt;stroke-linejoin:miter;stroke-opacity:1" />
    <path
       id="path841"
       d="M 43.845239,98.273808 Z"
       style="fill:none;stroke:#000000;stroke-width:0.264583px;stroke-linecap:butt;stroke-linejoin:miter;stroke-opacity:1" />
    <path
       id="path843"
       d="M 43.845239,98.273808 Z"
       style="fill:none;stroke:#000000;stroke-width:0.264583px;stroke-linecap:butt;stroke-linejoin:miter;stroke-opacity:1" />
    <path
       id="path845"
       d="M 43.845239,98.273808 Z"
       style="fill:none;stroke:#000000;stroke-width:0.264583px;stroke-linecap:butt;stroke-linejoin:miter;stroke-opacity:1" />
    <path
       sodipodi:nodetypes="cccc"
       id="path847"
       d="m 79.275418,175.55651 c -9.702562,0.60051 -14.024642,-8.21482 -18.142857,-17.38691 v 0 h 1.511906"
       style="fill:none;stroke:#000000;stroke-width:0.264583px;stroke-linecap:butt;stroke-linejoin:miter;stroke-opacity:1" />
    <path
       id="path849"
       d="M 26.458333,159.50595 Z"
       style="fill:none;stroke:#000000;stroke-width:0.264583px;stroke-linecap:butt;stroke-linejoin:miter;stroke-opacity:1" />
    <path
       sodipodi:nodetypes="cccc"
       id="path851"
       d="m 52.546559,147.49523 c -8.671857,9.89914 -1.364149,11.75123 1.458259,15.86205 l 1.458258,2.64367 v 0"
       style="fill:none;stroke:#000000;stroke-width:0.242965px;stroke-linecap:butt;stroke-linejoin:miter;stroke-opacity:1" />
    <ellipse
       ry="10.961308"
       rx="6.0476193"
       cy="125.86607"
       cx="78.619049"
       id="path853"
       style="font-variation-settings:normal;opacity:1;vector-effect:none;fill:none;fill-opacity:0.847059;fill-rule:evenodd;stop-color:#000000;stop-opacity:1;stroke:url(#linearGradient867)" />
    <ellipse
       style="font-variation-settings:normal;opacity:1;vector-effect:none;fill:none;fill-opacity:0.847059;fill-rule:evenodd;stop-color:#000000;stop-opacity:1;stroke:url(#linearGradient873)"
       id="ellipse855"
       cx="89.202385"
       cy="124.35417"
       rx="6.0476193"
       ry="10.961308" />
    <path
       id="path877"
       d="m -145.14286,216.20238 c -15.84265,-12.48666 -30.86443,-27.16244 -49.89285,-34.77381 -8.28466,-3.31387 -26.10411,-5.7409 -29.48214,-15.875 -0.0797,-0.23905 0.50591,0.0312 0.75595,0 1.76804,-0.22101 3.51789,-0.58702 5.29166,-0.75595 4.76847,-0.45414 10.8615,-0.1989 15.875,-0.75596 3.03509,-0.33723 6.07429,-1.66842 9.07143,-2.26785 0.97136,-0.19427 3.21908,-0.19527 3.77976,-0.75595 0.18525,-0.18526 0.0161,-1.9776 0,-2.26786 -0.23803,-4.28453 -0.46071,-8.57023 -0.75595,-12.85119 -0.20876,-3.0271 -0.34598,-6.06496 -0.75595,-9.07143 -0.34721,-2.54618 -0.93407,-5.05559 -1.51191,-7.55952 -2.87657,-12.46514 -4.22174,5.60563 -3.0238,6.80357 0.35636,0.35636 1.00793,0 1.5119,0"
       style="fill:none;stroke:#000000;stroke-width:0.264583px;stroke-linecap:butt;stroke-linejoin:miter;stroke-opacity:1" />
    <circle
       r="1.2027128"
       cy="106.23964"
       cx="49.177593"
       id="path1058"
       style="font-variation-settings:normal;opacity:1;vector-effect:none;fill:none;fill-opacity:0.847059;fill-rule:evenodd;stroke-width:0.264583;stroke-linecap:butt;stroke-linejoin:miter;stroke-miterlimit:4;stroke-dasharray:none;stroke-dashoffset:0;stroke-opacity:1;stop-color:#000000;stop-opacity:1;stroke:url(#linearGradient1074)" />
    <circle
       style="font-variation-settings:normal;opacity:1;vector-effect:none;fill:none;fill-opacity:0.847059;fill-rule:evenodd;stroke-width:0.264583;stroke-linecap:butt;stroke-linejoin:miter;stroke-miterlimit:4;stroke-dasharray:none;stroke-dashoffset:0;stroke-opacity:1;stop-color:#000000;stop-opacity:1;stroke:url(#linearGradient1068)"
       id="circle1060"
       cx="49.979401"
       cy="110.11504"
       r="1.2027128" />
    <circle
       r="1.2027128"
       cy="108.51143"
       cx="53.053001"
       id="circle1062"
       style="font-variation-settings:normal;opacity:1;vector-effect:none;fill:none;fill-opacity:0.847059;fill-rule:evenodd;stroke-width:0.264583;stroke-linecap:butt;stroke-linejoin:miter;stroke-miterlimit:4;stroke-dasharray:none;stroke-dashoffset:0;stroke-opacity:1;stop-color:#000000;stop-opacity:1;stroke:url(#linearGradient1080)" />
    <path
       transform="scale(0.26458333)"
       id="path1084"
       d="m 206.35602,741.7527 c -0.002,-9.93039 -0.46009,-41.05717 -1.01887,-69.17061 -0.93118,-46.84915 -0.79769,-50.84012 1.59934,-47.81758 3.39269,4.278 3.43332,2.03973 0.0806,-4.44363 -1.9249,-3.72235 -3.04547,-13.18662 -4.13888,-34.95686 -3.7275,-74.21626 -13.06883,-136.28808 -28.68661,-190.61859 -2.99796,-10.42918 -5.33423,-19.05565 -5.19171,-19.16993 0.14252,-0.11429 24.14828,16.95164 53.34613,37.92429 38.65765,27.76756 52.82237,38.80434 52.1134,40.6054 -2.56915,6.52664 -2.43899,32.77221 0.20768,41.87644 3.17956,10.93729 12.01943,21.70309 19.09694,23.25758 6.71793,1.4755 15.65717,-3.20294 20.03253,-10.48423 1.98555,-3.30427 3.80277,-6.26746 4.03827,-6.58487 0.23549,-0.31741 3.09936,2.09408 6.36415,5.35887 8.13938,8.13937 16.35868,8.28539 25.19567,0.44759 l 6.18805,-5.48838 46.67953,30.11882 46.67951,30.11883 -21.12183,10.6053 c -42.44298,21.31068 -88.55878,52.19278 -121.70367,81.50055 -7.98597,7.06147 -8.51821,7.26359 -16.9788,6.44799 -17.95932,-1.73126 -32.1255,-14.95991 -47.30402,-44.17341 -7.62711,-14.6796 -8.77714,-17.89944 -6.39315,-17.89944 2.1651,0 2.43026,-0.47664 1.03908,-1.86782 -1.0273,-1.0273 -3.06457,-1.40859 -4.52725,-0.84731 -2.23308,0.85691 -1.01167,4.26239 7.61869,21.24219 15.06735,29.64424 28.17378,41.92965 49.62443,46.51584 4.35603,0.93132 3.74393,1.7384 -17.44173,22.9977 -12.0759,12.11788 -31.08926,32.69641 -42.25191,45.73009 -11.16265,13.03365 -20.93629,24.40246 -21.71922,25.264 -0.80746,0.88855 -1.42475,-6.24718 -1.42639,-16.48882 z M 193.99229,416.1809 c 0,-3.27332 -0.9357,-4.22983 -4.5438,-4.64485 -2.96315,-0.34084 -4.8887,0.37616 -5.53528,2.0611 -1.77013,4.6129 0.66207,7.78914 5.53528,7.22861 3.6081,-0.41502 4.5438,-1.37154 4.5438,-4.64486 z m 11.26983,-3.57177 c 2.12195,-3.36976 -1.10441,-7.9704 -5.58952,-7.9704 -3.78283,0 -5.77903,5.96972 -3.08262,9.21869 2.49479,3.00604 6.34188,2.45228 8.67214,-1.24829 z m -14.05531,-11.79195 c -0.3959,-2.78096 -1.63089,-3.59842 -5.43635,-3.59842 -5.84619,0 -7.83207,5.14925 -3.27186,8.48375 4.01587,2.93648 9.39235,-0.0797 8.70821,-4.88533 z"
       style="fill:#ffccaa;stroke:none;stroke-width:1.64888;paint-order:stroke markers fill" />
    <path
       transform="scale(0.26458333)"
       id="path1086"
       d="m 344.95754,461.08131 c -5.84386,-2.96478 -13.51291,-5.85227 -17.04233,-6.41664 -7.83241,-1.25246 -8.88599,-3.50869 -5.23307,-11.20665 3.3904,-7.14474 9.71317,-12.43718 14.85844,-12.43718 8.41032,0 19.89712,19.08748 18.56401,30.84759 l -0.52184,4.60338 z"
       style="fill:#ffccaa;stroke:none;stroke-width:1.64888;paint-order:stroke markers fill" />
    <path
       transform="scale(0.26458333)"
       id="path1088"
       d="m 278.05039,464.48091 c 3.81676,-25.45197 20.22371,-35.36823 31.37249,-18.96134 4.27766,6.29515 4.05552,8.58562 -0.83267,8.58562 -1.7064,0 -9.06145,4.08099 -16.34455,9.06886 -7.2831,4.98786 -13.71838,9.06885 -14.30062,9.06885 -0.58225,0 -0.53484,-3.4929 0.10535,-7.76199 z"
       style="fill:#ffccaa;stroke:none;stroke-width:1.64888;paint-order:stroke markers fill" />
    <path
       transform="scale(0.26458333)"
       id="path1090"
       d="m 207.28584,755.48321 c -0.35905,-1.15824 -1.10597,-30.94551 -1.65981,-66.19395 -0.92634,-58.95419 -0.79052,-64.00499 1.69541,-63.05105 2.0832,0.79941 2.43209,0.37156 1.52265,-1.86723 -3.23135,-7.95472 -4.18287,-15.09289 -6.61461,-49.62218 -5.23099,-74.27702 -10.50132,-109.70302 -24.90988,-167.43864 -4.04663,-16.21497 -7.13026,-29.70902 -6.85251,-29.98676 0.7108,-0.71081 71.75623,50.1708 88.49344,63.3776 l 13.85289,10.93087 0.21952,21.43547 c 0.20135,19.66147 0.57533,22.11778 4.51881,29.67988 9.93438,19.05034 23.49442,21.6445 35.36612,6.76585 2.60733,-3.26772 5.19506,-5.94133 5.75052,-5.94136 0.55547,-3e-5 3.81098,2.22594 7.23448,4.9466 9.02064,7.1687 13.44779,6.59547 27.416,-3.54987 3.00962,-2.18594 1.29141,-3.18047 59.56254,34.47586 18.81787,12.16059 34.21431,22.62563 34.21431,23.25562 0,0.63 -6.49247,4.35818 -14.42772,8.28482 -37.17756,18.39683 -78.01616,44.65876 -113.60566,73.05599 l -22.68183,18.09805 -7.46003,-1.1187 c -18.72216,-2.80755 -31.6701,-15.26573 -47.90623,-46.09416 -4.21393,-8.00121 -6.36191,-13.94835 -5.7426,-15.89961 0.68302,-2.152 0.18912,-3.11724 -1.59507,-3.11724 -4.06592,0 -3.11852,3.95047 4.65426,19.40731 13.72117,27.28572 26.74151,41.21181 43.7736,46.81871 4.0243,1.32479 7.55041,3.10918 7.83579,3.96533 0.28538,0.85613 -10.0562,12.71021 -22.9813,26.34239 -12.92509,13.63219 -31.49219,33.86689 -41.26022,44.96603 -9.76803,11.09913 -18.05382,19.23259 -18.41287,18.07437 z M 193.16785,418.65422 c 1.63765,-1.97324 1.63765,-2.9734 0,-4.94664 -4.38602,-5.28483 -11.72481,-1.38009 -9.29701,4.94664 0.52201,1.36033 2.36553,2.47333 4.09672,2.47333 1.73119,0 4.07132,-1.113 5.20029,-2.47333 z m 10.59996,-5.06442 c 3.22625,-3.22624 3.2543,-4.69911 0.13877,-7.28476 -4.90894,-4.07406 -11.4976,2.51459 -7.42354,7.42354 2.58566,3.11553 4.05852,3.08747 7.28476,-0.13877 z m -13.22124,-9.98451 c 1.15485,-3.0095 -1.6411,-7.21098 -4.79869,-7.21098 -3.08758,0 -6.27565,4.55123 -5.18286,7.39898 1.27873,3.33232 8.6842,3.19284 9.98155,-0.188 z"
       style="fill:#ffccaa;stroke:none;stroke-width:1.64888;paint-order:stroke markers fill" />
    <path
       transform="scale(0.26458333)"
       id="path1092"
       d="m 15.08857,480.4311 c 0,-1.34138 0.722063,-4.95657 1.604584,-8.03375 0.882521,-3.07716 3.503967,-19.0252 5.825436,-35.44007 6.743631,-47.68356 13.12885,-65.83735 29.094642,-82.71882 8.846641,-9.35401 25.442941,-19.03588 38.087259,-22.21914 l 7.832191,-1.97179 -0.0066,-10.10977 c -0.0209,-31.82693 -14.021602,-81.73834 -39.065584,-139.26568 -0.524843,-1.20559 4.527206,1.4517 11.226772,5.90509 6.699567,4.45338 19.668692,13.04334 28.820281,19.08879 30.537449,20.17274 42.536849,35.07068 42.654729,52.95827 0.0362,5.48994 -0.56064,12.44314 -1.32627,15.45156 l -1.39205,5.46985 10.23912,-7.53761 c 13.04676,-9.60448 27.71089,-16.59233 43.99684,-20.96567 17.80207,-4.78046 54.6984,-5.042 89.52757,-0.63461 l 25.55768,3.23415 -15.66438,2.09644 c -35.0451,4.69025 -66.84135,15.95753 -90.64643,32.12137 -14.52352,9.86159 -23.96901,17.55315 -22.88591,18.63625 0.34158,0.34158 5.80667,-0.55197 12.14466,-1.98567 14.58341,-3.29888 52.97211,-3.69987 63.46339,-0.6629 14.39899,4.16815 28.21244,10.44025 49.85159,22.63546 l 21.87478,12.32801 -14.83994,-1.30037 c -8.16196,-0.71521 -27.08289,-1.24766 -42.04649,-1.18324 -29.85709,0.12855 -47.16574,2.79691 -65.95529,10.1679 -11.2451,4.41133 -30.55748,16.06113 -34.41621,20.76084 -1.7058,2.07758 -4.99027,2.75621 -13.33952,2.75621 -21.65429,0 -45.27072,8.576 -65.507316,23.78813 -17.922224,13.47237 -34.03172,32.27108 -66.475757,77.5728 -4.528578,6.32326 -8.233777,10.39935 -8.233777,9.05797 z"
       style="fill:#d45500;stroke:none;stroke-width:1.64888;paint-order:stroke markers fill" />
    <path
       transform="scale(0.26458333)"
       id="path1094"
       d="m 298.65892,505.18314 c -5.71197,-5.71196 -3.36664,-19.74918 3.29968,-19.74918 1.73044,0 4.25514,1.58316 5.61046,3.51815 2.11638,3.02156 2.1372,3.84516 0.14748,5.83488 -1.44248,1.44248 -1.96612,4.06981 -1.38762,6.96229 1.21498,6.07488 -3.09805,8.00582 -7.67,3.43386 z"
       style="fill:#000000;stroke:none;stroke-width:1.64888;paint-order:stroke markers fill" />
    <path
       transform="scale(0.26458333)"
       id="path1096"
       d="m 332.88233,496.34497 c 0.97708,-5.11128 -2.42248,-7.1581 -5.38784,-3.24394 -2.10552,2.77921 -2.31584,2.45644 -2.36362,-3.62731 -0.0769,-9.79497 6.41466,-14.27706 11.61051,-8.01645 2.66995,3.2171 2.57301,13.0975 -0.16084,16.39158 -2.97752,3.58769 -4.54934,2.94851 -3.69821,-1.50388 z"
       style="fill:#000000;stroke:none;stroke-width:1.64888;paint-order:stroke markers fill" />
    <path
       transform="scale(0.26458333)"
       id="path1098"
       d="m 192.59282,602.60064 c -6.67294,-7.13391 -7.66737,-9.11883 -7.65391,-15.27757 0.0104,-4.7714 1.57186,-9.7918 4.79085,-15.40381 9.01957,-15.72482 9.43206,-15.2423 10.75654,12.5828 0.65159,13.68892 0.86772,25.20593 0.4803,25.59336 -0.38743,0.38742 -4.15563,-2.98523 -8.37378,-7.49478 z"
       style="fill:#ffccaa;stroke:none;stroke-width:1.64888;paint-order:stroke markers fill" />
    <path
       transform="scale(0.26458333)"
       id="path1100"
       d=""
       style="fill:#ffccaa;stroke:none;stroke-width:1.64888;paint-order:stroke markers fill" />
    <path
       transform="scale(0.26458333)"
       id="path1102"
       d=""
       style="fill:#ffccaa;stroke:none;stroke-width:1.64888;paint-order:stroke markers fill" />
    <path
       transform="scale(0.26458333)"
       id="path1104"
       d="m 197.91779,412.72851 c -2.01932,-2.01933 -1.51647,-4.95801 1.03049,-6.0222 3.20789,-1.34034 6.25179,1.51508 5.10917,4.7928 -0.90174,2.58674 -4.13491,3.23414 -6.13966,1.2294 z"
       style="fill:#803300;stroke:none;stroke-width:0.412221;paint-order:stroke markers fill" />
    <path
       transform="scale(0.26458333)"
       id="path1106"
       d="m 183.83094,404.83158 c -0.39677,-0.23109 -1.01141,-0.98099 -1.36586,-1.66643 -1.32407,-2.56046 0.51305,-5.30829 3.54897,-5.30829 1.23218,0 1.77909,0.26436 2.62384,1.26829 1.44552,1.71789 1.39838,3.41059 -0.13775,4.94673 -1.27212,1.27211 -3.23979,1.59226 -4.6692,0.7597 z"
       style="fill:#803300;stroke:none;stroke-width:0.412221;paint-order:stroke markers fill" />
    <path
       transform="scale(0.26458333)"
       id="path1108"
       d="m 187.37893,419.72362 c -2.41708,-1.0181 -2.94418,-4.29323 -1.00331,-6.23409 1.53613,-1.53613 3.22883,-1.58327 4.94672,-0.13776 3.18063,2.67633 -0.10662,7.98794 -3.94341,6.37185 z"
       style="fill:#803300;stroke:none;stroke-width:0.412221;paint-order:stroke markers fill" />
  </g>
  <path
     id="path1012"
     d="M 43.845239,98.273808 73.23185,119.46948 72.69731,118.93494"
     style="fill:none;stroke:url(#linearGradient1114);stroke-width:0.264583px;stroke-linecap:butt;stroke-linejoin:miter;stroke-opacity:1" />
  <path
     id="path1014"
     d="M 72.69731,118.93494 Z"
     style="fill:none;stroke:#000000;stroke-width:0.264583px;stroke-linecap:butt;stroke-linejoin:miter;stroke-opacity:1" />
  <path
     id="path1016"
     d="M 119.44047,148.92262 92.742524,131.76387 v 0.80181 0 0 0 0 0"
     style="fill:none;stroke:#000000;stroke-width:0.264583px;stroke-linecap:butt;stroke-linejoin:miter;stroke-opacity:1" />
  <path
     sodipodi:nodetypes="ccccccc"
     id="path1018"
     d="m 72.430041,125.61668 c 6.754359,-1.33089 6.837036,-10.76311 22.450639,-1.33635 l -0.267269,-0.26727 v 0 0 0 0"
     style="fill:none;stroke:#000000;stroke-width:0.264583px;stroke-linecap:butt;stroke-linejoin:miter;stroke-opacity:1" />
  <ellipse
     ry="3.3408689"
     rx="2.271791"
     cy="131.36298"
     cx="80.047218"
     id="path1022"
     style="font-variation-settings:normal;opacity:1;vector-effect:none;fill:none;fill-opacity:0.847059;fill-rule:evenodd;stroke-width:0.264583;stroke-linecap:butt;stroke-linejoin:miter;stroke-miterlimit:4;stroke-dasharray:none;stroke-dashoffset:0;stroke-opacity:1;stop-color:#000000;stop-opacity:1;stroke:url(#linearGradient1032)" />
  <ellipse
     style="font-variation-settings:normal;opacity:1;vector-effect:none;fill:none;fill-opacity:0.847059;fill-rule:evenodd;stroke-width:0.264583;stroke-linecap:butt;stroke-linejoin:miter;stroke-miterlimit:4;stroke-dasharray:none;stroke-dashoffset:0;stroke-opacity:1;stop-color:#000000;stop-opacity:1;stroke:url(#linearGradient1038)"
     id="ellipse1024"
     cx="87.798035"
     cy="129.4921"
     rx="2.271791"
     ry="3.3408689" />
  <ellipse
     ry="0.93544334"
     rx="0.53453904"
     cy="131.89751"
     cx="81.784477"
     id="path1042"
     style="font-variation-settings:normal;opacity:1;vector-effect:none;fill:none;fill-opacity:0.847059;fill-rule:evenodd;stroke-width:0.264583;stroke-linecap:butt;stroke-linejoin:miter;stroke-miterlimit:4;stroke-dasharray:none;stroke-dashoffset:0;stroke-opacity:1;stop-color:#000000;stop-opacity:1;stroke:url(#linearGradient1056)" />
  <ellipse
     style="font-variation-settings:normal;opacity:1;vector-effect:none;fill:none;fill-opacity:0.847059;fill-rule:evenodd;stroke-width:0.264583;stroke-linecap:butt;stroke-linejoin:miter;stroke-miterlimit:4;stroke-dasharray:none;stroke-dashoffset:0;stroke-opacity:1;stop-color:#000000;stop-opacity:1;stroke:url(#linearGradient1050)"
     id="ellipse1044"
     cx="87.397141"
     cy="131.09569"
     rx="0.53453904"
     ry="0.93544334" />
</svg>
