<?xml version="1.0" encoding="UTF-8" standalone="no"?>
<svg
   xmlns:dc="http://purl.org/dc/elements/1.1/"
   xmlns:cc="http://creativecommons.org/ns#"
   xmlns:rdf="http://www.w3.org/1999/02/22-rdf-syntax-ns#"
   xmlns:svg="http://www.w3.org/2000/svg"
   xmlns="http://www.w3.org/2000/svg"
   xmlns:sodipodi="http://sodipodi.sourceforge.net/DTD/sodipodi-0.dtd"
   xmlns:inkscape="http://www.inkscape.org/namespaces/inkscape"
   sodipodi:docname="drawing-3.svg"
   inkscape:version="1.0 (4035a4fb49, 2020-05-01)"
   id="svg3076"
   version="1.1"
   viewBox="0 0 210 297"
   height="297mm"
   width="210mm">
  <defs
     id="defs3070" />
  <sodipodi:namedview
     inkscape:window-maximized="0"
     inkscape:window-y="0"
     inkscape:window-x="76"
     inkscape:window-height="728"
     inkscape:window-width="1274"
     showgrid="false"
     inkscape:document-rotation="0"
     inkscape:current-layer="layer1"
     inkscape:document-units="mm"
     inkscape:cy="711.53824"
     inkscape:cx="438.43339"
     inkscape:zoom="0.32"
     inkscape:pageshadow="2"
     inkscape:pageopacity="0.0"
     borderopacity="1.0"
     bordercolor="#666666"
     pagecolor="#ffffff"
     id="base" />
  <metadata
     id="metadata3073">
    <rdf:RDF>
      <cc:Work
         rdf:about="">
        <dc:format>image/svg+xml</dc:format>
        <dc:type
           rdf:resource="http://purl.org/dc/dcmitype/StillImage" />
        <dc:title></dc:title>
      </cc:Work>
    </rdf:RDF>
  </metadata>
  <g
     id="layer1"
     inkscape:groupmode="layer"
     inkscape:label="Layer 1">
    <g
       id="g3648">
      <ellipse
         style="fill:#f9f9f9;stroke:#000000;stroke-width:0.264583;stroke-opacity:0.971888;paint-order:stroke markers fill"
         id="path3639"
         cx="113.44009"
         cy="180.64899"
         rx="60.854164"
         ry="66.145836" />
    </g>
    <ellipse
       ry="50.958683"
       rx="45.005554"
       cy="195.86255"
       cx="113.36921"
       id="path3643"
       style="fill:#f9f9f9;stroke:#000000;stroke-width:0.306301;stroke-opacity:0.971888;paint-order:stroke markers fill" />
    <ellipse
       ry="15.709635"
       rx="5.3743491"
       cy="154.61589"
       cx="110.38086"
       id="path3650"
       style="fill:#f9f9f9;stroke:#000000;stroke-width:0.264583;stroke-opacity:0.971888;paint-order:stroke markers fill" />
    <ellipse
       style="fill:#f9f9f9;stroke:#000000;stroke-width:0.264583;stroke-opacity:0.971888;paint-order:stroke markers fill"
       id="ellipse3661"
       cx="122.7832"
       cy="156.26955"
       rx="5.3743491"
       ry="15.709635" />
    <ellipse
       ry="6.2011719"
       rx="5.3743491"
       cy="173.21939"
       cx="116.99545"
       id="path3665"
       style="fill:#f9f9f9;stroke:#000000;stroke-width:0.264583;stroke-opacity:0.971888;paint-order:stroke markers fill" />
    <path
       id="path3667"
       d="m 116.58203,176.9401 -1.65365,38.86068 v -2.48047 0 0 0"
       style="fill:none;stroke:#000000;stroke-width:0.264583px;stroke-linecap:butt;stroke-linejoin:miter;stroke-opacity:1" />
    <path
       sodipodi:nodetypes="ccccc"
       id="path3671"
       d="m 76.89453,206.02317 c 25.08029,19.57067 50.16059,24.343 75.24088,0 l 0.82682,-0.97109 v 0 0"
       style="fill:none;stroke:#000000;stroke-width:0.286739px;stroke-linecap:butt;stroke-linejoin:miter;stroke-opacity:1" />
    <path
       id="path3673"
       d="m 137.2526,181.07422 43.82161,-20.67058 v 0.82683 0 0 0"
       style="fill:none;stroke:#000000;stroke-width:0.264583px;stroke-linecap:butt;stroke-linejoin:miter;stroke-opacity:1" />
    <path
       id="path3675"
       d="m 137.28681,181.11529 38.81115,39.56736 0.80856,-1.46545 v 0"
       style="fill:none;stroke:#000000;stroke-width:0.348332px;stroke-linecap:butt;stroke-linejoin:miter;stroke-opacity:1" />
    <path
       id="path3677"
       d="m 137.2526,181.07422 58.70443,21.49739 v 0 0 0 0 0"
       style="fill:none;stroke:#000000;stroke-width:0.264583px;stroke-linecap:butt;stroke-linejoin:miter;stroke-opacity:1" />
    <path
       id="path3679"
       d="M 195.95703,202.57161 Z"
       style="fill:none;stroke:#000000;stroke-width:0.264583px;stroke-linecap:butt;stroke-linejoin:miter;stroke-opacity:1" />
    <path
       id="path3681"
       d="m 79.374999,184.38151 -42.994791,-29.76563 0.826823,-1.65364 v 0 0"
       style="fill:none;stroke:#000000;stroke-width:0.264583px;stroke-linecap:butt;stroke-linejoin:miter;stroke-opacity:1" />
    <path
       id="path3683"
       d="M 79.374999,184.38151 31.41927,203.39843"
       style="fill:none;stroke:#000000;stroke-width:0.264583px;stroke-linecap:butt;stroke-linejoin:miter;stroke-opacity:1" />
    <path
       id="path3685"
       d="m 79.374999,184.38151 -23.151041,47.1289"
       style="fill:none;stroke:#000000;stroke-width:0.264583px;stroke-linecap:butt;stroke-linejoin:miter;stroke-opacity:1" />
    <ellipse
       ry="3.7207031"
       rx="3.3072915"
       cy="156.68294"
       cx="110.79427"
       id="path3689"
       style="fill:#f9f9f9;stroke:#000000;stroke-width:0.264583;stroke-opacity:0.971888;paint-order:stroke markers fill" />
    <ellipse
       style="fill:#f9f9f9;stroke:#000000;stroke-width:0.264583;stroke-opacity:0.971888;paint-order:stroke markers fill"
       id="ellipse3691"
       cx="124.85026"
       cy="156.68294"
       rx="3.3072915"
       ry="3.7207031" />
    <path
       transform="scale(0.26458333)"
       id="path3693"
       d="m 434.5664,675.86692 c -14.53947,-8.04149 -16.35047,-30.27464 -3.27819,-40.24535 8.42527,-6.42626 20.57299,-4.04996 26.71095,5.22512 3.50182,5.2916 4.71153,15.89276 2.55812,22.41767 -2.50178,7.58047 -9.76749,13.8919 -15.99233,13.8919 -2.54993,0 -2.817,-0.41899 -2.817,-4.41942 0,-2.43068 -0.49718,-4.41941 -1.10485,-4.41941 -0.60767,0 -1.10486,1.98873 -1.10486,4.41941 0,4.66885 -1.02403,5.31354 -4.97184,3.13008 z"
       style="fill:#ff5555;stroke:#000000;stroke-width:1.10485;stroke-opacity:0.971888;paint-order:stroke markers fill" />
    <path
       transform="scale(0.26458333)"
       id="path3695"
       d="m 235.69261,651.19713 c -28.82198,-19.99667 -30.90992,-21.66812 -30.55548,-24.46054 0.76364,-6.01624 7.82831,-30.055 11.8228,-40.2291 13.22454,-33.68333 31.28214,-61.6285 55.72376,-86.23568 20.17828,-20.31496 38.68744,-33.7182 62.44582,-45.21956 84.23067,-40.77582 181.64449,-23.35907 249.24539,44.56292 19.56417,19.65709 34.03312,40.09144 46.86893,66.1925 7.77612,15.81238 17.45634,42.1962 18.76108,51.13403 l 0.64514,4.41942 -34.48997,16.13022 -34.48997,16.13022 -3.52089,-7.34685 c -17.26604,-36.02821 -49.06387,-68.20426 -83.54386,-84.53759 -5.8169,-2.75548 -11.04227,-5.00998 -11.61195,-5.00998 -0.56966,0 -2.15607,-3.47846 -3.52535,-7.72991 -2.86413,-8.89287 -8.27034,-16.62736 -12.71453,-18.1903 -6.06976,-2.13462 -12.38905,3.79381 -17.96112,16.85018 -0.39429,0.92388 -15.02731,-1.38264 -15.33552,-2.41724 -3.22848,-10.83774 -9.48272,-20.06041 -14.10512,-20.7998 -6.92688,-1.10802 -12.70384,4.78131 -17.41538,17.75411 -1.4006,3.85644 -3.08396,7.14469 -3.74079,7.30721 -11.17927,2.76617 -27.72417,8.43682 -35.98381,12.3332 -40.50828,19.10929 -75.26584,58.51783 -91.72324,103.99691 -1.37435,3.79794 -2.80508,6.88815 -3.17941,6.86714 -0.37433,-0.021 -14.60177,-9.69669 -31.61653,-21.50151 z"
       style="fill:#0000ff;stroke:#000000;stroke-width:1.10485;stroke-opacity:0.971888;paint-order:stroke markers fill" />
    <path
       transform="scale(0.26458333)"
       id="path3697"
       d="m 203.72299,732.2374 c -1.26476,-3.78419 -3.04218,-19.47452 -3.8322,-33.82914 -1.3274,-24.11853 1.83622,-66.46179 4.91286,-65.75587 0.58184,0.1335 14.87152,9.79924 31.75485,21.47943 23.07518,15.96383 30.53062,21.66439 30.02706,22.95922 -1.24665,3.20555 -5.89096,23.78361 -6.62305,29.3455 l -0.72736,5.52591 -25.58195,10.18031 c -14.07007,5.59917 -26.44783,10.49757 -27.50613,10.88533 -1.15515,0.42324 -2.12397,0.10723 -2.42408,-0.79069 z"
       style="fill:#0000ff;stroke:#000000;stroke-width:1.10485;stroke-opacity:0.971888;paint-order:stroke markers fill" />
    <path
       transform="scale(0.26458333)"
       id="path3699"
       d="m 235.50536,817.35838 c -12.24573,-20.65515 -21.71358,-43.55512 -27.52826,-66.58289 -1.55475,-6.15723 -3.05823,-12.01793 -3.34106,-13.02379 -0.41612,-1.47986 4.39539,-3.76722 25.21485,-11.98698 14.15101,-5.58698 26.23905,-10.36772 26.86233,-10.62388 0.75332,-0.3096 1.14525,7.59803 1.1691,23.58795 0.0197,13.22953 0.5717,27.03056 1.22658,30.66896 l 1.1907,6.61528 -11.28473,22.54898 -11.28472,22.54897 z"
       style="fill:#0000ff;stroke:#000000;stroke-width:1.10485;stroke-opacity:0.971888;paint-order:stroke markers fill" />
    <path
       transform="scale(0.26458333)"
       id="path3701"
       d="m 359.66471,920.75522 c -44.60358,-15.33811 -85.66058,-46.85693 -113.85802,-87.40703 -3.4359,-4.94108 -6.24709,-9.53657 -6.24709,-10.2122 0,-1.61523 20.227,-42.12342 21.03353,-42.12342 0.3418,0 1.25034,3.1074 2.01898,6.90534 4.25448,21.02188 16.30281,49.20638 29.40091,68.77718 20.53169,30.67784 45.54857,51.46804 80.12911,66.59103 6.31114,2.76004 -1.98454,1.07735 -12.47742,-2.5309 z"
       style="fill:#0000ff;stroke:#000000;stroke-width:1.10485;stroke-opacity:0.971888;paint-order:stroke markers fill" />
    <path
       transform="scale(0.26458333)"
       id="path3703"
       d=""
       style="fill:#0000ff;stroke:#000000;stroke-width:1.10485;stroke-opacity:0.971888;paint-order:stroke markers fill" />
    <path
       transform="scale(0.26458333)"
       id="path3705"
       d="m 487.67507,921.92915 c 55.88633,-23.45899 97.59041,-78.92982 108.69169,-144.57141 l 1.83264,-10.83638 16.38922,17.23649 16.38924,17.23649 -3.06966,5.75329 c -29.76551,55.7878 -75.96013,95.84049 -132.2334,114.65198 -15.91418,5.31993 -20.06667,5.5948 -7.99973,0.52954 z"
       style="fill:#0000ff;stroke:#000000;stroke-width:1.10485;stroke-opacity:0.971888;paint-order:stroke markers fill" />
    <path
       transform="scale(0.26458333)"
       id="path3707"
       d="m 615.07964,780.95209 -15.79469,-16.63329 -0.063,-24.81685 c -0.0552,-21.73489 0.14475,-24.73376 1.60966,-24.1478 0.91994,0.36797 12.61069,4.66889 25.97942,9.55759 13.36874,4.8887 24.77222,9.31212 25.34107,9.82983 2.1516,1.95817 -7.10159,34.27423 -15.06803,52.62391 -2.44031,5.62095 -4.83581,10.21991 -5.32334,10.21991 -0.48753,0 -7.99403,-7.48499 -16.68111,-16.6333 z"
       style="fill:#0000ff;stroke:#000000;stroke-width:1.10485;stroke-opacity:0.971888;paint-order:stroke markers fill" />
    <path
       transform="scale(0.26458333)"
       id="path3709"
       d="m 625.05315,722.30505 -27.16956,-9.98481 -1.95113,-11.22908 c -2.03442,-11.70847 -7.73519,-31.91059 -11.44931,-40.57357 l -2.15983,-5.03771 34.37249,-16.19653 c 24.028,-11.32214 34.58997,-15.79119 35.09511,-14.84967 2.51575,4.68895 6.50664,40.41506 6.50664,58.24685 0,17.98771 -3.43429,49.81077 -5.35963,49.66389 -0.39338,-0.03 -12.94153,-4.54773 -27.88478,-10.03937 z"
       style="fill:#0000ff;stroke:#000000;stroke-width:1.10485;stroke-opacity:0.971888;paint-order:stroke markers fill" />
    <path
       transform="scale(0.26458333)"
       id="path3711"
       d=""
       style="fill:#0000ff;stroke:#000000;stroke-width:0.78125;stroke-opacity:0.971888;paint-order:stroke markers fill" />
    <path
       transform="scale(0.26458333)"
       id="path3713"
       d=""
       style="fill:#0000ff;stroke:#000000;stroke-width:0.276214;stroke-opacity:0.971888;paint-order:stroke markers fill" />
    <path
       transform="scale(0.26458333)"
       id="path3715"
       d=""
       style="fill:#0000ff;stroke:#000000;stroke-width:0.276214;stroke-opacity:0.971888;paint-order:stroke markers fill" />
    <path
       transform="scale(0.26458333)"
       id="path3717"
       d=""
       style="fill:#0000ff;stroke:#000000;stroke-width:0.276214;stroke-opacity:0.971888;paint-order:stroke markers fill" />
    <path
       transform="scale(0.26458333)"
       id="path3719"
       d="m 387.8863,928.65232 c -7.2673,-1.45376 -13.86494,-3.11098 -13.40655,-3.36751 0.23348,-0.13066 0.42451,-0.47999 0.42451,-0.77627 0,-0.29629 0.0755,-0.5387 0.16788,-0.5387 0.0923,0 2.17429,0.68195 4.62657,1.51544 2.45229,0.8335 6.50959,2.06878 9.01623,2.74508 5.24469,1.41503 4.9319,1.57431 -0.82864,0.42196 z"
       style="fill:#0000ff;stroke:#000000;stroke-width:0.276214;stroke-opacity:0.971888;paint-order:stroke markers fill" />
    <path
       transform="scale(0.26458333)"
       id="path3721"
       d="m 384.4986,927.82589 c -2.69878,-0.59175 -5.99263,-1.36204 -7.31966,-1.71177 -2.0905,-0.55094 -2.40005,-0.70894 -2.31747,-1.18292 0.0524,-0.30087 0.14464,-0.59783 0.20493,-0.6599 0.0603,-0.0621 2.75191,0.70917 5.98139,1.71387 3.22947,1.00471 6.67969,2.06931 7.66715,2.36579 2.86211,0.85932 1.09222,0.63892 -4.21634,-0.52507 z"
       style="fill:#0000ff;stroke:#000000;stroke-width:0.276214;stroke-opacity:0.971888;paint-order:stroke markers fill" />
    <path
       transform="scale(0.26458333)"
       id="path3723"
       d="m 393.34152,929.58739 c 0.1899,-0.0766 0.50064,-0.0766 0.69053,0 0.1899,0.0766 0.0345,0.13932 -0.34526,0.13932 -0.3798,0 -0.53517,-0.0627 -0.34527,-0.13932 z"
       style="fill:#0000ff;stroke:#000000;stroke-width:0.276214;stroke-opacity:0.971888;paint-order:stroke markers fill" />
    <path
       transform="scale(0.26458333)"
       id="path3725"
       d="m 463.56882,929.45818 c 0.53171,-0.14428 2.83119,-0.76508 5.10995,-1.37956 2.27877,-0.61449 5.81119,-1.66605 7.84983,-2.3368 2.03864,-0.67076 3.71664,-1.21957 3.72888,-1.21958 0.0122,-10e-6 0.0103,0.40372 -0.004,0.89717 -0.0261,0.88256 -0.0599,0.9052 -2.0716,1.38768 -6.08507,1.45941 -18.56568,3.72367 -14.61282,2.65109 z"
       style="fill:#0000ff;stroke:#000000;stroke-width:0.276214;stroke-opacity:0.971888;paint-order:stroke markers fill" />
    <path
       transform="scale(0.26458333)"
       id="path3729"
       d="m 413.4869,604.6624 c -2.77299,-1.5066 -5.30967,-4.7337 -6.28152,-7.99117 -1.02456,-3.43419 -1.02456,-5.48033 0,-8.91452 2.36225,-7.91789 10.77804,-11.63327 17.26557,-7.62235 8.21064,5.07625 8.54827,18.55518 0.59659,23.81735 -3.03513,2.00856 -8.567,2.34804 -11.58064,0.71069 z"
       style="fill:#000000;stroke:#000000;stroke-width:0.552427;stroke-opacity:0.971888;paint-order:stroke markers fill" />
    <path
       transform="scale(0.26458333)"
       id="path3731"
       d="m 465.71528,603.95305 c -6.92132,-4.64708 -8.02408,-15.50222 -2.22222,-21.87464 3.20013,-3.51484 9.13678,-4.57624 13.40805,-2.3972 4.56785,2.33035 6.97155,6.61681 7.02791,12.53276 0.0486,5.10245 -1.96543,9.09525 -5.92142,11.73908 -2.31828,1.54932 -3.16146,1.79538 -6.15237,1.79538 -2.99345,0 -3.83042,-0.24473 -6.13995,-1.79538 z"
       style="fill:#000000;stroke:#000000;stroke-width:0.552427;stroke-opacity:0.971888;paint-order:stroke markers fill" />
  </g>
</svg>
