<?xml version="1.0" encoding="UTF-8" standalone="no"?>
<svg
   xmlns:osb="http://www.openswatchbook.org/uri/2009/osb"
   xmlns:dc="http://purl.org/dc/elements/1.1/"
   xmlns:cc="http://creativecommons.org/ns#"
   xmlns:rdf="http://www.w3.org/1999/02/22-rdf-syntax-ns#"
   xmlns:svg="http://www.w3.org/2000/svg"
   xmlns="http://www.w3.org/2000/svg"
   xmlns:xlink="http://www.w3.org/1999/xlink"
   xmlns:sodipodi="http://sodipodi.sourceforge.net/DTD/sodipodi-0.dtd"
   xmlns:inkscape="http://www.inkscape.org/namespaces/inkscape"
   sodipodi:docname="MONKEY.svg"
   inkscape:version="1.0 (4035a4fb49, 2020-05-01)"
   id="svg8"
   version="1.1"
   viewBox="0 0 210 297"
   height="297mm"
   width="210mm">
  <defs
     id="defs2">
    <linearGradient
       osb:paint="solid"
       id="linearGradient1013">
      <stop
         id="stop1011"
         offset="0"
         style="stop-color:#000000;stop-opacity:1;" />
    </linearGradient>
    <linearGradient
       osb:paint="solid"
       id="linearGradient1007">
      <stop
         id="stop1005"
         offset="0"
         style="stop-color:#000000;stop-opacity:1;" />
    </linearGradient>
    <linearGradient
       osb:paint="solid"
       id="linearGradient939">
      <stop
         id="stop937"
         offset="0"
         style="stop-color:#000000;stop-opacity:1;" />
    </linearGradient>
    <linearGradient
       osb:paint="solid"
       id="linearGradient853">
      <stop
         id="stop851"
         offset="0"
         style="stop-color:#170000;stop-opacity:1;" />
    </linearGradient>
    <linearGradient
       osb:paint="solid"
       id="linearGradient843">
      <stop
         id="stop841"
         offset="0"
         style="stop-color:#170000;stop-opacity:1;" />
    </linearGradient>
    <linearGradient
       osb:paint="solid"
       id="linearGradient837">
      <stop
         id="stop835"
         offset="0"
         style="stop-color:#ff8080;stop-opacity:1;" />
    </linearGradient>
    <linearGradient
       gradientTransform="translate(-64.255952,-11.339285)"
       gradientUnits="userSpaceOnUse"
       y2="106.58928"
       x2="154.97024"
       y1="106.58928"
       x1="47.625004"
       id="linearGradient855"
       xlink:href="#linearGradient853"
       inkscape:collect="always" />
    <linearGradient
       y2="106.58928"
       x2="154.97024"
       y1="106.58928"
       x1="47.625004"
       gradientTransform="translate(3.0959689,-0.86231953)"
       gradientUnits="userSpaceOnUse"
       id="linearGradient921"
       xlink:href="#linearGradient853"
       inkscape:collect="always" />
    <linearGradient
       gradientUnits="userSpaceOnUse"
       y2="65.855225"
       x2="120.4851"
       y1="65.855225"
       x1="111.50484"
       id="linearGradient1009"
       xlink:href="#linearGradient1007"
       inkscape:collect="always" />
    <linearGradient
       gradientUnits="userSpaceOnUse"
       y2="69.597"
       x2="88.305847"
       y1="69.597"
       x1="79.325592"
       id="linearGradient1015"
       xlink:href="#linearGradient1013"
       inkscape:collect="always" />
  </defs>
  <sodipodi:namedview
     inkscape:window-maximized="0"
     inkscape:window-y="0"
     inkscape:window-x="76"
     inkscape:window-height="728"
     inkscape:window-width="1274"
     inkscape:lockguides="false"
     showgrid="false"
     inkscape:document-rotation="0"
     inkscape:current-layer="layer1"
     inkscape:document-units="mm"
     inkscape:cy="247.83086"
     inkscape:cx="187.92018"
     inkscape:zoom="0.35355339"
     inkscape:pageshadow="2"
     inkscape:pageopacity="0.0"
     borderopacity="1.0"
     bordercolor="#666666"
     pagecolor="#ffffff"
     id="base" />
  <metadata
     id="metadata5">
    <rdf:RDF>
      <cc:Work
         rdf:about="">
        <dc:format>image/svg+xml</dc:format>
        <dc:type
           rdf:resource="http://purl.org/dc/dcmitype/StillImage" />
        <dc:title></dc:title>
      </cc:Work>
    </rdf:RDF>
  </metadata>
  <g
     style="opacity:0.862"
     id="layer1"
     inkscape:groupmode="layer"
     inkscape:label="Layer 1">
    <ellipse
       ry="25.702381"
       rx="53.672619"
       cy="105.72696"
       cx="104.39359"
       id="path847"
       style="font-variation-settings:normal;opacity:1;vector-effect:none;fill:#ffd5d5;fill-opacity:0.847059;fill-rule:evenodd;stroke:url(#linearGradient921);stroke-width:0.264583;stroke-linecap:butt;stroke-linejoin:miter;stroke-miterlimit:4;stroke-dasharray:none;stroke-dashoffset:0;stroke-opacity:1;stop-color:#000000;stop-opacity:1" />
    <path
       sodipodi:nodetypes="ccccc"
       id="path923"
       d="m 65.106856,101.77624 c -1.716205,-5.625624 4.549842,-8.058348 12.722029,-9.728615 v 0 l 2.993419,10.476965 c -5.348019,-0.79713 -12.136233,-8.79524 -15.715448,-0.74835 z"
       style="fill:none;stroke:#000000;stroke-width:0.264583px;stroke-linecap:butt;stroke-linejoin:miter;stroke-opacity:1" />
    <path
       sodipodi:nodetypes="ccccc"
       style="fill:none;stroke:#000000;stroke-width:0.264583px;stroke-linecap:butt;stroke-linejoin:miter;stroke-opacity:1"
       d="m 118.98839,99.531176 c -1.17566,-7.575941 3.93558,-10.12236 12.72203,-9.728615 v 0 l 2.99342,10.476969 c -5.23848,-2.03444 -10.47697,-7.94281 -15.71545,-0.748354 z"
       id="path925" />
    <path
       sodipodi:nodetypes="cccc"
       id="path927"
       d="m 101.02788,98.782816 c -7.052213,8.308824 -2.425817,11.946194 0,16.463804 v -1.49671 0"
       style="fill:none;stroke:#000000;stroke-width:0.264583px;stroke-linecap:butt;stroke-linejoin:miter;stroke-opacity:1" />
    <path
       id="path968"
       d="M 77.828885,53.133182 Z"
       style="fill:none;stroke:#000000;stroke-width:0.264583px;stroke-linecap:butt;stroke-linejoin:miter;stroke-opacity:1" />
    <path
       sodipodi:nodetypes="ccccccccccccc"
       id="path970"
       d="m 117.49168,80.073949 c 15.84074,-9.728611 12.5416,-19.457222 -1.49671,-29.185833 v 0 0 0 0 0 0 0 0 2.245066 0 l -16.463799,5.986837"
       style="fill:none;stroke:#000000;stroke-width:0.264583px;stroke-linecap:butt;stroke-linejoin:miter;stroke-opacity:1" />
    <ellipse
       ry="5.238483"
       rx="4.4901276"
       cy="69.597"
       cx="83.81572"
       id="path1001"
       style="font-variation-settings:normal;opacity:1;vector-effect:none;fill:none;fill-opacity:0.847059;fill-rule:evenodd;stroke-width:0.264583;stroke-linecap:butt;stroke-linejoin:miter;stroke-miterlimit:4;stroke-dasharray:none;stroke-dashoffset:0;stroke-opacity:1;stop-color:#000000;stop-opacity:1;stroke:url(#linearGradient1015)" />
    <ellipse
       style="font-variation-settings:normal;opacity:1;vector-effect:none;fill:none;fill-opacity:0.847059;fill-rule:evenodd;stroke-width:0.264583;stroke-linecap:butt;stroke-linejoin:miter;stroke-miterlimit:4;stroke-dasharray:none;stroke-dashoffset:0;stroke-opacity:1;stop-color:#000000;stop-opacity:1;stroke:url(#linearGradient1009)"
       id="ellipse1003"
       cx="115.99497"
       cy="65.855225"
       rx="4.4901276"
       ry="5.238483" />
    <path
       transform="scale(0.26458333)"
       id="path1019"
       d="m 243.2011,329.90489 c -3.18323,-3.18323 -1.76908,-35.74312 2.40877,-55.4605 10.01349,-47.25869 38.76016,-85.43761 79.48452,-105.56468 21.45729,-10.60477 22.98584,-10.92532 52.09774,-10.92532 29.07694,0 30.66171,0.33105 51.9494,10.852 47.64287,23.54638 77.39215,69.46389 82.6587,127.5823 l 2.01684,22.25661 -6.79418,-2.00226 c -3.7368,-1.10124 -18.07297,-4.41202 -31.85816,-7.35729 -13.78519,-2.94528 -25.58157,-5.87264 -26.21418,-6.50525 -0.63261,-0.6326 4.0445,-4.75012 10.39357,-9.15003 14.75343,-10.22413 25.32825,-28.06848 25.32825,-42.73984 0,-14.84706 -12.18759,-33.86965 -31.46044,-49.10396 -13.62091,-10.7667 -15.08019,-11.315 -16.91485,-6.35545 -1.38437,3.74231 -11.09268,8.65742 -31.26352,15.82804 l -29.25564,10.40022 -40.97329,-11.34645 c -46.61182,-12.90789 -43.34604,-12.23133 -41.04145,-8.50241 0.96674,1.56422 -2.62304,8.24638 -7.9773,14.84924 -23.73347,29.26809 -29.30771,58.99533 -16.48241,87.90012 7.27474,16.3953 7.18506,15.0442 1.11554,16.80582 -2.72236,0.79013 -9.56105,3.4337 -15.19709,5.87458 -5.63604,2.44089 -11.04541,3.63992 -12.02082,2.66451 z"
       style="fill:#c87137;stroke:none;stroke-width:3.98741;stroke-linejoin:round;paint-order:stroke markers fill" />
    <path
       transform="scale(0.26458333)"
       id="path1027"
       d="m 279.6114,375.48903 c -8.23327,-4.00491 -16.80113,-6.25273 -20.5061,-5.37989 -12.24348,2.88441 -6.62913,-6.2831 7.59541,-12.40233 21.87875,-9.41199 26.6645,-8.35797 30.70884,6.76335 5.7502,21.49937 4.86908,22.04487 -17.79815,11.01887 z"
       style="fill:#ff5555;stroke:none;stroke-width:3.98741;stroke-linejoin:round;paint-order:stroke markers fill" />
    <path
       transform="scale(0.26458333)"
       id="path1029"
       d="m 450.73124,367.82945 c 0,-15.32182 13.52875,-25.40201 34.63886,-25.8092 10.87158,-0.2097 11.44278,0.23477 14.82764,11.53799 4.78095,15.96524 1.98024,19.82699 -9.91734,13.67451 -12.55907,-6.49455 -26.64503,-6.53344 -33.76139,-0.0932 -5.0313,4.55326 -5.78777,4.64344 -5.78777,0.68993 z"
       style="fill:#d40000;stroke:none;stroke-width:3.98741;stroke-linejoin:round;paint-order:stroke markers fill" />
    <path
       transform="scale(0.26458333)"
       id="path1037"
       d="m 273.15707,305.20362 c -10.44379,-24.68624 -10.3138,-43.83229 0.44071,-64.91127 7.79733,-15.28285 25.41878,-35.97082 29.92468,-35.13222 1.86875,0.34779 17.84755,4.62279 35.50846,9.5 17.6609,4.8772 34.3109,8.82318 37,8.76883 8.57241,-0.17326 62.50461,-20.95383 63.77405,-24.57273 1.707,-4.86627 23.03891,12.91217 33.20633,27.67481 7.28266,10.57409 7.90888,12.54455 7.90888,24.88609 0,16.23379 -5.23406,25.5314 -21.49496,38.18296 -5.77777,4.4953 -11.94827,9.34639 -13.71222,10.78019 -2.46343,2.00236 -10.83729,2.37547 -36.10978,1.60889 -38.33601,-1.16282 -70.30254,1.64035 -101.12675,8.86788 -11.85596,2.77994 -23.44639,5.49723 -25.75651,6.03843 -3.56619,0.83546 -5.00974,-0.92947 -9.56289,-11.69186 z m 55.6352,-26.72683 c 2.57461,-2.77804 5.12821,-7.38988 5.67467,-10.24852 2.34927,-12.2894 -7.12127,-26.70049 -17.54676,-26.70049 -11.69246,0 -21.21278,16.23512 -17.00204,28.99379 4.42062,13.39462 19.88455,17.65514 28.87413,7.95522 z M 450.7424,263.37433 c 3.89175,-4.62509 5.17778,-8.38893 5.17778,-15.15385 0,-21.10691 -24.10727,-28.15024 -32.90361,-9.61333 -3.88646,8.19011 -3.91114,13.54371 -0.0964,20.92054 6.14805,11.88903 19.50154,13.73525 27.82225,3.84664 z"
       style="fill:#ffe6d5;fill-opacity:1;stroke:none;stroke-width:2.81953;stroke-linejoin:round;paint-order:stroke markers fill" />
    <path
       transform="scale(0.26458333)"
       id="path1043"
       d="m 431.23279,265.26271 c -2.02807,-1.17889 -4.91419,-5.07958 -6.41361,-8.66819 -3.32674,-7.96201 -0.69231,-19.96626 5.05703,-23.04321 17.73364,-9.49076 32.69363,13.6345 18.19782,28.13031 -6.15384,6.15384 -10.73827,7.12866 -16.84124,3.58109 z"
       style="fill:#110000;fill-opacity:1;stroke:none;stroke-width:2.81953;stroke-linejoin:round;paint-order:stroke markers fill" />
    <path
       transform="scale(0.26458333)"
       id="path1045"
       d="m 306.82927,276.61869 c -10.48012,-10.48013 -3.79065,-31.09091 10.09091,-31.09091 13.84455,0 20.31487,19.68107 10.0955,30.70795 -6.18113,6.66955 -13.75611,6.81325 -20.18641,0.38296 z"
       style="fill:#333333;fill-opacity:1;stroke:none;stroke-width:2.81953;stroke-linejoin:round;paint-order:stroke markers fill" />
    <path
       sodipodi:nodetypes="ccccc"
       id="path1074"
       d="m 71.842047,117.1175 c 32.285743,19.39413 46.599763,7.33774 63.610143,0 v 0 0 0"
       style="fill:#ff0010;fill-opacity:1;stroke:#000000;stroke-width:0.264583px;stroke-linecap:butt;stroke-linejoin:miter;stroke-opacity:1" />
    <path
       transform="scale(0.26458333)"
       id="path1076"
       d="m 363.79366,494.58904 c -92.27222,-7.27125 -163.14132,-43.69803 -170.05065,-87.40619 -4.18034,-26.44463 14.89098,-52.90242 52.07915,-72.24983 23.78299,-12.37327 59.23858,-22.91623 94.12598,-27.989 26.22652,-3.81344 86.58342,-3.43202 113.13709,0.71496 56.1744,8.77296 99.82243,26.82011 123.81485,51.19374 9.74711,9.90199 14.83846,18.45427 17.74853,29.81337 11.98999,46.80152 -52.89837,91.89382 -149.34156,103.78063 -22.26764,2.74452 -60.96516,3.76156 -81.51339,2.14232 z m 51.27611,-13.42681 c 21.72761,-3.69382 40.56803,-10.73941 82.56318,-30.87548 l 16.26346,-7.7981 -121.44197,-0.10171 c -104.44097,-0.0875 -121.20994,0.17788 -119.78448,1.89545 3.34176,4.02658 43.74108,23.08892 60.91422,28.74225 30.4185,10.01367 55.63646,12.53207 81.48559,8.13759 z m -31.98812,-48.06939 c 0,-1.98 -0.81874,-3.53554 -1.8609,-3.53554 -1.0235,0 -3.40998,-2.69632 -5.3033,-5.99182 -9.70383,-16.89045 -9.33482,-26.01137 1.71723,-42.44499 3.00785,-4.47245 4.81362,-8.13173 4.01284,-8.13173 -2.52138,0 -12.35343,16.66853 -14.08182,23.87327 -1.25625,5.23663 -1.26128,8.38902 -0.0208,13.07987 1.71613,6.48986 12.65338,26.63932 14.47616,26.66913 0.58329,0.01 1.06058,-1.57365 1.06058,-3.51819 z m -76.89816,-47.0226 c -0.39668,-1.36118 -2.70348,-9.47523 -5.12622,-18.03123 -2.42275,-8.55599 -4.75204,-16.74092 -5.17622,-18.18873 -0.65266,-2.22771 -1.67287,-2.49029 -6.63634,-1.70803 -10.17135,1.60305 -23.97668,6.28213 -31.73301,10.75538 -9.25437,5.33719 -13.01063,11.13751 -13.01769,20.10154 -0.005,6.82437 1.91325,8.98382 3.51054,3.9512 0.48289,-1.52147 2.80199,-4.38526 5.15355,-6.36396 6.44802,-5.42566 13.63797,-4.85931 28.17499,2.21932 20.15209,9.81283 26.09973,11.5515 24.8504,7.26451 z m 204.17739,-6.36619 c 0,-2.3485 -11.63374,-40.12791 -12.67873,-41.1729 -0.95028,-0.95027 -5.89659,-0.89594 -14.95694,0.16431 -24.0364,2.81275 -34.58973,12.04907 -34.58973,30.27309 0,4.54457 0.41301,8.26285 0.9178,8.26285 0.50478,0 3.12319,-2.27082 5.81868,-5.04627 10.01979,-10.31705 17.24243,-10.3173 37.95036,-0.001 14.14867,7.04838 17.53856,8.50191 17.53856,7.52023 z"
       style="fill:#ffd5d5;fill-opacity:1;stroke:none;stroke-width:1.99371;stroke-linejoin:round;paint-order:stroke markers fill" />
    <path
       transform="scale(0.26458333)"
       id="path1078"
       d=""
       style="fill:#aa0000;fill-opacity:1;stroke:none;stroke-width:1.99371;stroke-linejoin:round;paint-order:stroke markers fill" />
    <path
       transform="scale(0.26458333)"
       id="path1080"
       d="m 281.96539,376.21361 c -8.03943,-3.69544 -13.87174,-5.37159 -20.15255,-5.79164 -4.86136,-0.32512 -8.83883,-1.04246 -8.83883,-1.59408 0,-3.75724 15.58956,-12.39527 28.59905,-15.84646 6.26772,-1.66272 6.88984,-1.57344 10.10906,1.45086 3.26668,3.06889 7.96093,17.30944 7.96093,24.15042 0,4.27301 -4.55613,3.66242 -17.67766,-2.3691 z"
       style="fill:#aa0000;fill-opacity:1;stroke:none;stroke-width:1.99371;stroke-linejoin:round;paint-order:stroke markers fill" />
    <path
       transform="scale(0.26458333)"
       id="path1082"
       d="m 245.90294,377.48975 c 0,-4.50165 5.15439,-13.09375 8.48528,-14.14452 1.52635,-0.4815 1.3438,0.20627 -0.65087,2.45219 -2.27739,2.56424 -2.42231,3.33761 -0.81197,4.33286 1.55532,0.96124 1.03248,2.26813 -2.53111,6.32684 l -4.49133,5.11534 z"
       style="fill:#aa0000;fill-opacity:1;stroke:none;stroke-width:1.99371;stroke-linejoin:round;paint-order:stroke markers fill" />
    <path
       transform="scale(0.26458333)"
       id="path1084"
       d="m 298.85816,384.63437 c -0.97513,-0.67906 -0.60769,-1.89637 1.06066,-3.51388 1.40396,-1.36118 2.55266,-1.89053 2.55266,-1.17632 0,0.7142 0.38629,2.30519 0.85841,3.53553 0.90102,2.348 -1.76834,3.03727 -4.47173,1.15467 z"
       style="fill:#aa0000;fill-opacity:1;stroke:none;stroke-width:1.99371;stroke-linejoin:round;paint-order:stroke markers fill" />
    <path
       transform="scale(0.26458333)"
       id="path1086"
       d=""
       style="fill:#aa0000;fill-opacity:1;stroke:none;stroke-width:1.99371;stroke-linejoin:round;paint-order:stroke markers fill" />
    <path
       transform="scale(0.26458333)"
       id="path1088"
       d=""
       style="fill:#aa0000;fill-opacity:1;stroke:none;stroke-width:1.99371;stroke-linejoin:round;paint-order:stroke markers fill" />
    <path
       transform="scale(0.26458333)"
       id="path1090"
       d="m 500.46138,373.62561 c -5.74359,-3.01212 -5.99414,-3.34369 -2.57017,-3.40137 2.65454,-0.0447 4.09549,-1.0145 4.79849,-3.22947 0.87474,-2.75605 1.24502,-2.3517 2.86227,3.12559 1.02166,3.46013 1.72612,6.41525 1.56547,6.56694 -0.16066,0.15168 -3.15588,-1.22608 -6.65606,-3.06169 z"
       style="fill:#aa0000;fill-opacity:1;stroke:none;stroke-width:1.99371;stroke-linejoin:round;paint-order:stroke markers fill" />
    <path
       transform="scale(0.26458333)"
       id="path1092"
       d="m 278.13244,315.44659 c -2.26103,-2.5103 -7.26413,-13.95223 -9.77751,-22.36089 -5.17875,-17.32578 -3.9234,-33.78945 3.82808,-50.20459 5.66121,-11.98863 18.50062,-29.52843 25.55271,-34.90732 l 4.70839,-3.59127 33.23541,8.73375 c 18.27948,4.80357 33.87734,8.33703 34.66192,7.85213 0.78458,-0.48489 1.42651,-0.20767 1.42651,0.61605 0,3.24266 9.29586,1.1161 32.7658,-7.49563 30.86454,-11.32502 35.11645,-13.13834 35.11645,-14.97616 0,-3.28644 5.0559,-1.10695 13.6984,5.90511 16.05056,13.02253 27.909,29.73959 27.57181,38.86845 -0.0922,2.49735 0.44837,4.92139 1.20135,5.38676 0.75298,0.46537 1.36906,1.80072 1.36906,2.96745 0,1.16672 -0.6364,1.728 -1.41422,1.24729 -0.84957,-0.52507 -1.41421,1.30697 -1.41421,4.58861 0,11.74373 -11.8715,27.13922 -30.40559,39.43134 l -7.07107,4.68965 -46.66905,0.5455 c -50.39992,0.58912 -61.12625,1.67898 -93.33809,9.48375 -9.33381,2.26154 -18.26838,4.48764 -19.8546,4.9469 -1.82595,0.52867 -3.73061,-0.10489 -5.19155,-1.72688 z m 46.70911,-34.42472 c 6.2306,-3.79866 10.7758,-13.86861 9.46122,-20.96143 -1.28155,-6.9146 -5.49795,-13.49708 -9.94279,-15.52228 -12.52058,-5.70477 -24.71693,3.59613 -24.71693,18.84905 0,8.11015 3.03601,14.15487 8.9075,17.73492 5.77676,3.5223 10.39588,3.49388 16.291,-0.10025 z M 446.29905,266.98 c 12.57386,-7.66673 12.37358,-30.8019 -0.3167,-36.58398 -8.92262,-4.06542 -20.05386,0.44279 -23.53373,9.53127 -3.79816,9.91983 -0.30394,22.15761 7.7243,27.05271 5.73419,3.49634 10.39193,3.49634 16.12613,0 z"
       style="fill:#ffd5d5;fill-opacity:1;stroke:none;stroke-width:1.99371;stroke-linejoin:round;paint-order:stroke markers fill" />
    <path
       transform="scale(0.26458333)"
       id="path1094"
       d="m 271.77981,309.09802 c -7.29593,-17.57144 -8.12699,-21.16008 -8.12937,-35.10421 -0.003,-19.81424 5.45546,-33.99772 21.71963,-56.43314 4.73887,-6.53698 8.61613,-13.06004 8.61613,-14.49569 0,-1.43565 0.82703,-2.61027 1.83784,-2.61027 1.73516,0 50.0629,13.07021 73.13548,19.77945 l 10.6266,3.09009 24.02163,-8.81359 c 34.10765,-12.51418 36.04245,-13.42257 36.04245,-16.922 0,-2.76615 0.44386,-2.65013 6.57066,1.71751 12.00304,8.55669 26.97052,24.73778 31.62173,34.18573 10.3157,20.95416 2.91359,41.37093 -21.59668,59.56874 -4.84965,3.60065 -9.77213,7.30667 -10.93886,8.2356 -1.54448,1.22968 -14.81193,1.70305 -48.79037,1.7408 -41.79074,0.0464 -48.5908,0.38326 -65.05382,3.22239 -15.13014,2.60926 -36.11052,7.5427 -52.44039,12.33111 -2.5656,0.75232 -3.49416,-0.46469 -7.24266,-9.49252 z m 53.4635,-28.43949 c 9.00288,-6.0604 11.82222,-17.05793 6.95208,-27.1183 -9.04573,-18.68599 -32.55234,-11.57532 -32.55234,9.84698 0,8.11015 3.03601,14.15487 8.9075,17.73492 5.95145,3.62882 10.814,3.49377 16.69276,-0.4636 z M 446.29905,266.98 c 12.31138,-7.50668 12.60101,-29.8218 0.4685,-36.09576 -9.1532,-4.73331 -20.68617,-0.44474 -24.31893,9.04305 -3.79816,9.91983 -0.30394,22.15761 7.7243,27.05271 5.73419,3.49634 10.39193,3.49634 16.12613,0 z"
       style="fill:#ffd5d5;fill-opacity:1;stroke:none;stroke-width:1.99371;stroke-linejoin:round;paint-order:stroke markers fill" />
    <path
       transform="scale(0.26458333)"
       id="path1096"
       d="m 361.99748,494.49457 c -43.17929,-3.30929 -82.57175,-13.49102 -115.04487,-29.73555 -61.75046,-30.8904 -71.52029,-79.58993 -23.26197,-115.95366 29.89097,-22.52352 79.35865,-38.93006 131.29947,-43.54701 11.15369,-0.99143 11.94455,-1.20776 5.01425,-1.37157 -11.93494,-0.2821 -36.73869,3.65094 -61.06841,9.68339 -11.66726,2.89285 -21.87993,5.01707 -22.69482,4.72049 -0.81489,-0.29657 -3.87091,-6.59682 -6.79114,-14.00055 -11.8044,-29.9279 -7.57344,-54.69506 14.58535,-85.3795 4.74204,-6.56655 8.9899,-13.40545 9.43969,-15.19754 0.44979,-1.7921 1.8625,-3.25206 3.13936,-3.24435 1.27686,0.008 20.40307,5.02582 42.50269,11.15136 l 40.18113,11.13736 10.02345,-3.40693 c 21.69675,-7.37465 44.67168,-16.50361 44.67168,-17.75004 0,-0.72198 0.61558,-0.93224 1.36796,-0.46724 0.75237,0.46499 2.17825,-0.45204 3.16861,-2.03786 0.99036,-1.58582 2.37222,-2.8833 3.07081,-2.8833 2.49752,0 21.11292,16.28162 27.41558,23.97854 21.45976,26.20703 17.42464,50.0257 -12.33686,72.82252 -12.7962,9.80167 -11.19705,9.48627 -48.6176,9.58883 l -34.17257,0.0937 29.69848,1.05525 c 16.33417,0.58039 35.10785,1.80384 41.7193,2.71877 81.09567,11.22255 137.01563,41.14269 148.6824,79.55298 3.90828,12.86717 2.9321,22.31742 -3.70776,35.8944 -6.08917,12.4509 -21.71942,27.82149 -38.37934,37.74172 -44.79858,26.67555 -118.93496,40.27499 -189.90487,34.83583 z m 62.80347,-15.28713 c 6.22254,-1.5278 16.08668,-4.47829 21.92032,-6.55663 11.05164,-3.93735 61.93193,-27.00538 64.276,-29.14136 1.69885,-1.54802 -234.0367,-1.59482 -236.47514,-0.047 -4.03166,2.55925 43.28464,25.16414 67.43552,32.21665 27.67635,8.08202 58.88326,9.41111 82.8433,3.52828 z m -41.7193,-46.82171 c 0,-1.55563 -0.79549,-2.8363 -1.76776,-2.84593 -2.04361,-0.0202 -6.99713,-7.25735 -10.17786,-14.86991 -4.23582,-10.13774 -2.05816,-21.77111 6.36784,-34.01787 2.43991,-3.5463 4.13618,-6.74785 3.76947,-7.11456 -0.90081,-0.90079 -9.95081,13.11055 -12.35372,19.12621 -2.82007,7.06006 -2.22871,16.9768 1.44592,24.24724 8.51717,16.85162 12.71611,21.96151 12.71611,15.47482 z m -76.73838,-45.60839 c -0.3704,-0.97227 -3.09049,-10.26433 -6.04463,-20.64903 l -5.37117,-18.88126 -5.37968,0.86024 c -9.88382,1.58049 -27.56412,7.84458 -33.61918,11.91121 -3.29359,2.212 -7.21075,5.87613 -8.7048,8.14249 -2.89338,4.38905 -3.75235,15.34584 -1.32087,16.84859 0.77782,0.48072 1.41421,0.22221 1.41421,-0.57444 0,-0.79666 1.97512,-3.698 4.38914,-6.44742 3.84215,-4.37597 5.20806,-4.99882 10.96016,-4.99784 4.45248,7.5e-4 9.53469,1.42534 15.7634,4.41864 21.23194,10.2033 29.25754,12.897 27.91342,9.36882 z m 203.64676,-8.48528 c -0.37041,-0.97227 -3.0675,-10.18361 -5.99355,-20.46964 -3.61323,-12.70166 -6.05465,-18.93422 -7.60958,-19.42607 -4.05879,-1.28388 -25.46472,1.86108 -31.64735,4.64962 -10.90161,4.91694 -16.60407,14.03 -16.60407,26.53483 0,6.86498 1.94176,9.12141 4.207,4.88877 0.83627,-1.56258 3.87971,-4.44418 6.76321,-6.40357 8.56547,-5.8204 15.45642,-4.9788 33.71663,4.11782 16.55289,8.24608 18.20626,8.83435 17.16771,6.10824 z M 323.03459,281.65015 c 12.60366,-5.98083 14.75539,-23.53236 4.18128,-34.10648 -5.55357,-5.55357 -11.69645,-6.14043 -18.81908,-1.79787 -12.13281,7.39716 -11.39102,28.79305 1.23297,35.56336 5.88758,3.15755 7.38889,3.19574 13.40483,0.34099 z m 121.62236,-14.14214 c 5.64153,-2.67708 9.46323,-7.98488 8.17199,-11.34976 -0.67499,-1.759 -0.42515,-2.11449 0.90732,-1.29098 1.45636,0.90008 1.70814,-0.66967 1.21064,-7.54762 -0.51701,-7.14759 -1.34409,-9.43133 -4.6746,-12.90765 -11.16428,-11.65298 -28.98743,-2.9582 -29.00159,14.14803 -0.007,8.14308 3.83946,15.31303 9.98141,18.607 5.88759,3.15755 7.38889,3.19573 13.40483,0.34098 z"
       style="fill:#f4d7d7;fill-opacity:1;stroke:none;stroke-width:1.99371;stroke-linejoin:round;paint-order:stroke markers fill" />
    <path
       transform="scale(0.26458333)"
       id="path1098"
       d="m 360.45424,494.56751 c -48.98904,-4.66031 -93.11298,-17.16996 -123.71285,-35.07403 -13.76229,-8.05237 -32.90842,-26.40355 -37.87257,-36.30014 -21.24953,-42.36324 15.68459,-84.13522 94.41027,-106.77672 7.77818,-2.237 13.18307,-4.10592 12.01088,-4.15316 -1.1722,-0.0472 -7.75628,1.46172 -14.63131,3.35323 -6.87503,1.89151 -13.26485,3.14562 -14.1996,2.78692 -0.93475,-0.35869 -4.1354,-6.82782 -7.11254,-14.37582 -11.71825,-29.70949 -8.27967,-51.11341 13.38576,-83.32152 6.18441,-9.19382 11.24653,-17.51152 11.24915,-18.4838 0.003,-0.97227 1.15716,-1.76776 2.56565,-1.76776 2.60615,0 78.89822,20.69691 80.93719,21.95706 0.61367,0.37927 8.96538,-2.11697 18.55937,-5.54719 29.53918,-10.56142 33.70549,-12.39432 33.72871,-14.83837 0.0173,-1.81779 0.26754,-1.89056 1.23744,-0.35986 0.86141,1.35948 1.5019,1.45581 2.19739,0.33049 0.53988,-0.87355 1.53048,-1.24904 2.20134,-0.83443 0.67084,0.4146 2.17728,-0.61327 3.34763,-2.28417 2.64702,-3.77916 3.60823,-3.37853 15.36589,6.40441 36.93875,30.73484 37.86348,60.68381 2.70528,87.61668 -12.78087,9.79077 -12.56812,9.73555 -37.57134,9.75097 l -22.7393,0.014 17.67767,1.11383 c 88.29035,5.56298 156.87423,33.90429 176.10553,72.77308 10.977,22.18586 7.03316,41.90821 -12.4902,62.46125 -25.62304,26.9744 -71.09244,45.42707 -131.79552,53.48609 -20.42388,2.71152 -66.97294,3.83712 -85.55992,2.06895 z m 48.08326,-12.72945 c 14.37388,-1.85935 30.33076,-6.12385 44.90715,-12.00153 18.67343,-7.52974 56.83093,-25.30202 56.87601,-26.49064 0.0508,-1.34031 -228.5201,-1.12983 -233.30502,0.21484 -3.4241,0.96225 -3.33472,1.11165 2.83557,4.74015 3.5041,2.06062 14.32283,7.53002 24.04163,12.15423 39.0651,18.58721 72.865,25.49385 104.64466,21.38295 z m -25.45585,-48.69547 c 0,-1.13936 -1.14204,-2.68276 -2.53789,-3.42979 -1.39582,-0.74703 -4.57781,-5.31358 -7.07106,-10.1479 -7.1823,-13.9262 -6.12831,-24.14658 4.00973,-38.88171 2.45171,-3.56344 4.15998,-6.77666 3.79616,-7.14048 -0.88198,-0.88196 -8.81011,11.56617 -11.56366,18.15632 -2.53554,6.06842 -2.85149,16.12167 -0.6869,21.85631 0.8265,2.18964 3.72142,7.95863 6.43318,12.81998 4.76223,8.5373 7.62044,11.0755 7.62044,6.76727 z m -82.31774,-65.43934 c -3.0924,-10.70477 -5.87989,-19.72582 -6.19442,-20.04677 -1.08188,-1.10398 -24.89129,5.57644 -32.20326,9.03556 -10.12117,4.78808 -16.49264,11.6805 -17.45919,18.8867 -0.42496,3.16828 -0.34736,6.86879 0.17244,8.22338 0.80726,2.10367 1.31919,1.85569 3.51022,-1.70038 6.9391,-11.26224 15.5232,-11.9541 34.7899,-2.80397 13.31582,6.32394 20.85633,9.1978 22.10633,8.42526 0.4953,-0.30611 -1.62961,-9.315 -4.72202,-20.01978 z m 209.03489,9.88171 c -0.41399,-1.36118 -3.04629,-10.11163 -5.84957,-19.44544 -2.8033,-9.33381 -5.65836,-17.54405 -6.3446,-18.24498 -1.91635,-1.95736 -18.08509,-1.03918 -27.38868,1.55534 -14.30966,3.99057 -22.05045,14.18323 -22.07258,29.06401 -0.007,5.12791 1.66659,6.90034 3.58537,3.79568 0.51247,-0.8292 3.5093,-3.37478 6.65962,-5.65686 9.01287,-6.52888 15.59477,-5.85394 34.43396,3.53111 8.47949,4.22419 15.93741,7.72436 16.5732,7.77817 0.63577,0.0537 0.81724,-1.01585 0.40328,-2.37703 z M 320.14915,310.13947 c 4.66691,-1.05309 6.89429,-1.91882 4.94975,-1.92386 -3.96716,-0.0103 -18.87354,3.56605 -15.55635,3.73226 1.16673,0.0585 5.9397,-0.75532 10.6066,-1.8084 z m 15.22971,-3.13217 c -0.95747,-0.38738 -2.86665,-0.41096 -4.24264,-0.0524 -1.37598,0.35856 -0.5926,0.67551 1.74085,0.70433 2.33346,0.0288 3.45925,-0.26455 2.50179,-0.65193 z m 27.78596,-2.7782 c 1.02232,-0.93132 -11.60294,-0.33905 -18.97404,0.8901 -5.20848,0.86852 -3.7184,0.97729 5.65686,0.4129 7.00035,-0.42141 12.99308,-1.00777 13.31718,-1.303 z m -40.06971,-22.60767 c 17.12658,-8.1271 12.01935,-38.63275 -6.48149,-38.71418 -5.28561,-0.0233 -11.94498,4.65993 -14.60888,10.27368 -2.56418,5.40362 -3.20241,15.15603 -0.99186,15.15603 0.75341,0 1.04798,0.83873 0.6546,1.86385 -1.01651,2.64899 4.72375,9.43883 9.87644,11.68232 5.60678,2.44119 5.86773,2.43528 11.55119,-0.2617 z m 121.50413,-14.09948 c 4.03046,-2.10154 6.73936,-5.27208 7.1576,-8.37738 0.10479,-0.77782 0.2874,-2.24727 0.40588,-3.26544 0.11847,-1.01818 0.8518,-1.45792 1.62961,-0.9772 0.86949,0.53737 1.41422,-1.80122 1.41422,-6.07136 0,-11.93588 -8.38234,-20.92553 -18.18081,-19.49804 -6.63789,0.96704 -11.41157,4.46394 -13.75713,10.07763 -2.49398,5.96895 -2.73007,15.40082 -0.34864,13.92902 1.1384,-0.70357 1.34897,-0.22628 0.67501,1.53002 -1.26939,3.30803 2.21875,8.59053 8.00032,12.11577 5.46188,3.33032 7.48636,3.41392 13.00394,0.53698 z"
       style="fill:#ffe6d5;fill-opacity:1;stroke:none;stroke-width:1.99371;stroke-linejoin:round;paint-order:stroke markers fill" />
    <path
       id="path1102"
       d="m 68.848631,59.868373 c -1.119892,-1.483936 -2.441906,-2.087234 -2.993419,-3.741774 -0.788231,-2.36469 -1.274787,-7.331292 0,-8.606078 0.187086,-0.187087 0.935442,0.187089 1.122531,0 0.187087,-0.187087 0.187087,-0.561266 0.374177,-0.748353 0.05007,-0.05007 4.392141,0 4.864306,0 0.154072,0 1.023485,-0.09905 1.122532,0 0.08819,0.08819 -0.111559,0.318397 0,0.374176 0.7806,0.3903 0.796414,0.04806 1.496708,0.748356 0.704033,0.70403 0.940956,1.315132 1.496711,1.870884 0.480253,0.480256 1.136983,0.762807 1.496708,1.122532 0.08819,0.0882 -0.124724,0.374179 0,0.374179 0.124727,0 0.08819,-0.285983 0,-0.374179 -0.529167,-0.529166 -0.123028,1.506892 0,2.245066"
       style="fill:none;stroke:#000000;stroke-width:0.264583px;stroke-linecap:butt;stroke-linejoin:miter;stroke-opacity:1" />
    <path
       id="path1104"
       d="m 115.99497,50.888116 c 4.05715,1.31544 3.34395,-4.104126 5.61266,-5.238483 0.66238,-0.331186 0.12786,0.556567 0.74836,-0.374176 0.1547,-0.232055 0.17697,-0.551146 0.37418,-0.748355 0.4091,-0.409107 4.59607,-2.139114 5.23848,-1.496709 0.0882,0.08819 -0.0882,0.285983 0,0.374177 0.29765,0.297659 1.60204,0.47951 1.87089,0.748355 0.0882,0.08819 -0.0882,0.285983 0,0.374177 0.77619,0.776195 2.07041,1.322062 2.61924,1.870887 0.28276,0.282768 0.28381,2.167432 0.37417,2.619243 0.49724,2.486165 0.48544,6.290135 0.37418,6.735191 -0.15239,0.60956 -1.02982,2.152356 -1.49671,2.619242 -0.33273,0.332735 -2.61924,0.228656 -2.61924,-1.122534"
       style="fill:none;stroke:#000000;stroke-width:0.264583px;stroke-linecap:butt;stroke-linejoin:miter;stroke-opacity:1" />
    <path
       id="path1106"
       d="m 129.09118,57.249131 c 2.95983,-0.937829 0.1451,2.451293 0,1.870887 -0.15125,-0.60501 0,-1.247259 0,-1.870887"
       style="fill:none;stroke:#000000;stroke-width:0.264583px;stroke-linecap:butt;stroke-linejoin:miter;stroke-opacity:1" />
    <path
       id="path1108"
       d="m 77.828885,53.133182 -8.980254,6.735191"
       style="fill:none;stroke:#000000;stroke-width:0.264583px;stroke-linecap:butt;stroke-linejoin:miter;stroke-opacity:1" />
    <path
       transform="scale(0.26458333)"
       id="path1110"
       d="m 493.39031,217.42527 c 0,-3.05062 -4.01494,-3.90465 -6.53047,-1.38912 -0.97626,0.97625 -2.93904,-0.64905 -6.10103,-5.05205 -2.56395,-3.57024 -9.5212,-11.26624 -15.46055,-17.10222 -6.65354,-6.53775 -10.61589,-11.51999 -10.32227,-12.97918 0.82375,-4.09376 11.38166,-13.09118 18.01315,-15.35076 6.94186,-2.36532 11.8082,-1.29057 18.06179,3.98904 1.67557,1.41461 4.52339,3.70912 6.3285,5.09892 3.0086,2.3164 3.35086,3.92504 4.10858,19.31019 0.71575,14.53307 0.48287,17.42151 -1.73694,21.54345 -2.83448,5.26332 -6.36076,6.33423 -6.36076,1.93173 z"
       style="fill:#d45500;fill-opacity:1;stroke:none;stroke-width:1.99371;stroke-linejoin:round;paint-order:stroke markers fill" />
    <path
       transform="scale(0.26458333)"
       id="path1112"
       d="m 256.18655,219.83515 c -6.27525,-6.63214 -7.60595,-10.00468 -8.47347,-21.47522 -0.96812,-12.80089 0.10472,-17.70421 3.87366,-17.70421 1.54081,0 2.80148,-0.6364 2.80148,-1.41422 0,-1.94306 19.21549,-1.80713 23.07394,0.16322 1.69896,0.86759 5.38139,4.02705 8.18319,7.02102 l 5.09417,5.44358 -3.489,3.23203 c -1.91895,1.77762 -7.61312,8.49241 -12.6537,14.92174 -11.75585,14.99475 -12.9196,15.61499 -18.41027,9.81206 z"
       style="fill:#c87137;fill-opacity:1;stroke:none;stroke-width:1.99371;stroke-linejoin:round;paint-order:stroke markers fill" />
    <path
       transform="scale(0.26458333)"
       id="path1114"
       d="m 493.39031,216.71528 c 0,-1.73267 -1.06099,-2.22031 -4.13036,-1.89836 -3.44584,0.36145 -5.1324,-0.73417 -10.17668,-6.61093 -3.32547,-3.87429 -10.09387,-11.31496 -15.04088,-16.53481 -7.32475,-7.72873 -8.74139,-9.96036 -7.63084,-12.02082 3.50146,-6.49647 15.79691,-14.53788 22.24061,-14.5457 4.85269,-0.006 16.68444,7.14665 19.61764,11.85928 2.62298,4.21421 3.86818,29.97887 1.74961,36.20146 -1.75114,5.14338 -6.6291,7.75552 -6.6291,3.54988 z"
       style="fill:#c87137;fill-opacity:1;stroke:none;stroke-width:1.99371;stroke-linejoin:round;paint-order:stroke markers fill" />
  </g>
</svg>
